<?xml version="1.0" standalone="no"?>
<!DOCTYPE svg PUBLIC "-//W3C//DTD SVG 1.1//EN" "http://www.w3.org/Graphics/SVG/1.1/DTD/svg11.dtd" >
<svg xmlns="http://www.w3.org/2000/svg">
<metadata>Generated by IcoMoon</metadata>
<defs>
<font id="icomoon" horiz-adv-x="1024">
<font-face units-per-em="1024" ascent="960" descent="-64" />
<missing-glyph horiz-adv-x="1024" />
<glyph unicode="&#x20;" horiz-adv-x="512" d="" />
<glyph unicode="&#xe900;" glyph-name="down-arrow" d="M512 256c-8.184 0-16.376 3.128-22.624 9.376l-320 320c-12.504 12.504-12.504 32.752 0 45.248s32.752 12.504 45.248 0l297.376-297.376 297.376 297.376c12.504 12.504 32.752 12.504 45.248 0s12.504-32.752 0-45.248l-320-320c-6.248-6.248-14.44-9.376-22.624-9.376z" />
<glyph unicode="&#xe901;" glyph-name="facebook" horiz-adv-x="1022" d="M580-62h-163.984c-27.391 0-49.672 22.281-49.672 49.672v369.875h-95.672c-27.391 0-49.672 22.289-49.672 49.672v158.492c0 27.391 22.281 49.672 49.672 49.672h95.672v79.367c0 78.695 24.711 145.648 71.453 193.609 46.953 48.18 112.57 73.641 189.758 73.641l125.063-0.203c27.344-0.047 49.586-22.328 49.586-49.672v-147.156c0-27.391-22.273-49.672-49.656-49.672l-84.203-0.031c-25.68 0-32.219-5.148-33.617-6.727-2.305-2.617-5.047-10.016-5.047-30.445v-62.703h116.539c8.773 0 17.273-2.164 24.578-6.242 15.758-8.805 25.555-25.453 25.555-43.445l-0.063-158.492c0-27.375-22.281-49.656-49.672-49.656h-116.938v-369.883c0-27.391-22.289-49.672-49.68-49.672zM426.375-1.969h143.266v386.391c0 18.289 14.883 33.164 33.164 33.164h133.453l0.055 137.766h-133.516c-18.281 0-33.156 14.875-33.156 33.164v89.578c0 23.453 2.383 50.125 20.086 70.172 21.391 24.234 55.102 27.031 78.602 27.031l73.844 0.031v126.453l-114.664 0.188c-124.047 0-201.133-79.406-201.133-207.219v-106.234c0-18.281-14.875-33.164-33.156-33.164h-112.188v-137.766h112.188c18.281 0 33.156-14.875 33.156-33.164zM752.5 901.766h0.008z" />
<glyph unicode="&#xe902;" glyph-name="twitter" d="M607.324 526.406l373.010 433.594h-88.391l-323.885-376.484-258.686 376.484h-298.363l391.184-569.31-391.184-454.69h88.396l342.031 397.58 273.191-397.58h298.363l-405.688 590.406zM486.253 385.674l-354.997 507.782h135.772l624.957-893.939h-135.772l-269.96 386.135z" />
<glyph unicode="&#xe903;" glyph-name="instagram-logo" d="M741.403 960h-458.823c-155.814 0-282.579-126.771-282.579-282.585v-458.823c0-155.82 126.765-282.585 282.579-282.585h458.823c155.826 0 282.591 126.771 282.591 282.585v458.823c0.006 155.814-126.765 282.585-282.591 282.585zM933.146 218.591c0-105.723-86.014-191.732-191.738-191.732h-458.829c-105.717-0.006-191.726 86.008-191.726 191.732v458.823c0 105.717 86.008 191.732 191.726 191.732h458.823c105.723 0 191.738-86.014 191.738-191.732v-458.823zM511.997 711.848c-145.493 0-263.857-118.364-263.857-263.857 0-145.487 118.364-263.845 263.857-263.845s263.857 118.358 263.857 263.845c0 145.493-118.364 263.857-263.857 263.857zM511.997 275.005c-95.39 0-173.004 77.601-173.004 172.992 0 95.396 77.607 173.004 173.004 173.004s173.004-77.607 173.004-173.004c0-95.39-77.613-172.992-173.004-172.992zM786.92 788.886c-17.504 0-34.7-7.087-47.062-19.503-12.423-12.356-19.564-29.558-19.564-47.123 0-17.511 7.147-34.706 19.564-47.123 12.356-12.356 29.558-19.503 47.062-19.503 17.565 0 34.706 7.147 47.123 19.503 12.417 12.417 19.503 29.618 19.503 47.123 0 17.565-7.087 34.767-19.503 47.123-12.356 12.417-29.558 19.503-47.123 19.503z" />
<glyph unicode="&#xe904;" glyph-name="youtube" d="M512 47.986c-130.295 0-244.641 8.516-317.623 15.661-92.391 9.042-166 79.503-179.006 171.342-20.495 145.463-20.495 280.56 0 426.025 13.006 91.837 86.615 162.298 179.006 171.34 72.981 7.144 187.329 15.661 317.623 15.661s244.641-8.516 317.623-15.661c92.391-9.042 166-79.503 179.006-171.342 20.495-145.463 20.495-280.56 0-426.025-13.006-91.837-86.615-162.298-179.006-171.34-72.983-7.144-187.329-15.661-317.623-15.661zM512 768.011c-127.064 0-238.62-8.308-309.829-15.283-55.534-5.436-99.774-47.764-107.586-102.934-9.688-68.41-14.601-136.303-14.601-201.797s4.912-133.385 14.601-201.795c7.812-55.172 52.052-97.499 107.586-102.936 71.211-6.972 182.764-15.283 309.829-15.283s238.62 8.308 309.829 15.283c55.534 5.436 99.774 47.764 107.586 102.934 9.688 68.41 14.601 136.303 14.601 201.797s-4.912 133.385-14.601 201.795c-7.812 55.172-52.052 97.499-107.586 102.936-71.209 6.974-182.764 15.283-309.829 15.283zM460.112 258.401c-53.482-0.728-101.37 45.65-100.118 99.766v180.666c0 36.181 18.847 68.5 50.416 86.453 31.817 18.097 69.594 17.725 101.042-0.984l151.833-90.333c64.606-37.067 64.59-133.881 0-170.936l-151.833-90.333c-16.013-9.526-33.669-14.299-51.34-14.299zM460.206 558.498c-4.666 0-8.378-1.696-10.246-2.758-3.72-2.116-9.96-7.124-9.96-16.907v-180.666c0-9.784 6.24-14.793 9.96-16.907 3.114-1.772 11.352-5.302 20.589 0.196l151.833 90.333c12.926 7.716 12.944 25.691 0 33.423l-151.833 90.333c-3.696 2.198-7.232 2.952-10.342 2.952z" />
<glyph unicode="&#xe905;" glyph-name="profile" d="M60.032 691.2v-486.4l451.968-241.056 451.968 241.056v486.4l-451.968 241.056zM248.416 176.864c66.887 68.686 160.259 111.295 263.584 111.295s196.697-42.609 263.505-111.214l0.079-0.081-263.584-140.608zM899.968 243.2l-66.56-35.488c-79.068 88.813-193.713 144.48-321.36 144.48s-242.292-55.667-320.983-144.050l-0.377-0.431-66.656 35.488v409.6l387.968 206.944 387.968-206.944zM352 576c0-88.366 71.634-160 160-160s160 71.634 160 160c0 88.366-71.634 160-160 160v0c-88.321-0.109-159.891-71.678-160-159.989v-0.011zM608 576c0-53.019-42.981-96-96-96s-96 42.981-96 96c0 53.019 42.981 96 96 96v0c53.019 0 96-42.981 96-96v0z" />
<glyph unicode="&#xe906;" glyph-name="magnifying-glass" d="M859.414 160.844l-138.372 138.372c41.936 54.898 64.936 121.487 64.945 191.753 0 84.677-32.979 164.292-92.865 224.167-59.875 59.875-139.479 92.854-224.167 92.854-84.677 0-164.292-32.979-224.167-92.854-123.604-123.615-123.604-324.74 0-448.333 59.875-59.885 139.49-92.865 224.167-92.865 70.266 0.009 136.854 23.009 191.753 64.945l138.372-138.372c8.323-8.333 19.25-12.5 30.167-12.5s21.844 4.167 30.167 12.5c16.667 16.656 16.667 43.677 0 60.333zM305.122 327.135c-90.333 90.333-90.323 237.323 0 327.667 43.76 43.75 101.948 67.854 163.833 67.854 61.896 0 120.073-24.104 163.833-67.854 43.76-43.76 67.865-101.948 67.865-163.833 0-61.896-24.104-120.073-67.865-163.833s-101.937-67.865-163.833-67.865c-61.885 0-120.073 24.104-163.833 67.865z" />
<glyph unicode="&#xe907;" glyph-name="global" d="M418.959 846.988c-168.482-39.132-297.085-182.231-314.539-358.028h163.756c10.269 110.041 59.601 213.937 106.424 290.935 15.209 25.011 30.405 47.589 44.359 67.092zM104.42 407.040c17.454-175.796 146.057-318.894 314.539-358.027-13.954 19.501-29.15 42.082-44.359 67.092-46.823 76.997-96.155 180.892-106.424 290.935zM605.037 49.013c168.481 39.133 297.083 182.231 314.54 358.027h-163.758c-10.269-110.043-59.601-213.938-106.422-290.935-15.213-25.010-30.405-47.591-44.36-67.092zM919.577 488.96c-17.457 175.797-146.059 318.896-314.54 358.028 13.955-19.504 29.147-42.082 44.36-67.092 46.821-76.998 96.154-180.894 106.422-290.935zM444.596 158.667c-43.185 71.016-83.988 159.281-94.070 248.373h322.942c-10.080-89.092-50.885-177.357-94.069-248.373-24.47-40.239-48.984-73.773-67.404-97.255-18.416 23.482-42.93 57.016-67.4 97.255zM444.596 737.331c-43.185-71.013-83.988-159.279-94.070-248.371h322.942c-10.080 89.092-50.885 177.358-94.069 248.371-24.47 40.242-48.984 73.773-67.404 97.258-18.416-23.484-42.93-57.016-67.4-97.258z" />
<glyph unicode="&#xe908;" glyph-name="arrow-right" d="M584.836 119.164c-16.661-16.661-43.678-16.661-60.339 0s-16.661 43.678 0 60.339l225.826 225.83h-579.657c-23.564 0-42.667 19.102-42.667 42.667s19.102 42.667 42.667 42.667h579.657l-225.826 225.83c-16.661 16.662-16.661 43.677 0 60.34s43.678 16.662 60.339 0l298.662-298.667c16.666-16.661 16.666-43.678 0-60.339z" />
<glyph unicode="&#xe909;" glyph-name="angle-down" d="M512 320c-11.781 0.003-22.446 4.78-30.165 12.501l-170.667 170.667c-8.036 7.769-13.026 18.647-13.026 30.69 0 23.564 19.103 42.667 42.667 42.667 12.043 0 22.92-4.989 30.678-13.014l140.513-140.513 140.501 140.501c7.665 7.41 18.12 11.977 29.641 11.977 23.564 0 42.667-19.103 42.667-42.667 0-11.521-4.567-21.976-11.989-29.653l-170.655-170.655c-7.719-7.722-18.384-12.499-30.165-12.501h-0.001z" />
<glyph unicode="&#xe90a;" glyph-name="right-arrow" d="M1012.268 476.314c-0.012 0.012-0.022 0.026-0.036 0.038l-209.008 208c-15.658 15.582-40.984 15.524-56.57-0.136-15.584-15.658-15.524-40.984 0.134-56.568l140.328-139.648h-847.116c-22.092 0-40-17.908-40-40s17.908-40 40-40h847.114l-140.324-139.648c-15.658-15.584-15.718-40.91-0.134-56.568 15.586-15.662 40.914-15.716 56.57-0.136l209.008 208c0.012 0.012 0.022 0.026 0.036 0.038 15.666 15.636 15.616 41.044-0.002 56.628z" />
<glyph unicode="&#xe90b;" glyph-name="left-arrow" d="M984 488h-847.116l140.328 139.648c15.658 15.584 15.718 40.91 0.134 56.568-15.584 15.66-40.912 15.718-56.57 0.136l-209.008-208c-0.014-0.012-0.024-0.026-0.036-0.038-15.618-15.584-15.668-40.992-0.004-56.628 0.014-0.012 0.024-0.026 0.036-0.038l209.008-208c15.656-15.58 40.984-15.526 56.57 0.136 15.584 15.658 15.524 40.984-0.134 56.568l-140.324 139.648h847.116c22.092 0 40 17.908 40 40s-17.908 40-40 40z" />
<glyph unicode="&#xe90c;" glyph-name="check" d="M879.514 718.986c17.916-15.677 19.541-42.987 3.605-60.674l-448.593-497.911c-16.019-17.779-43.523-18.91-60.946-2.509l-259.585 244.378c-16.189 15.241-17.738 40.636-3.849 57.997 15.326 19.157 43.866 21.794 62.106 5.389l201.403-181.158c17.503-15.744 44.45-14.336 60.219 3.145l385.856 427.815c15.612 17.312 42.24 18.882 59.785 3.529z" />
<glyph unicode="&#xe90d;" glyph-name="like" d="M752 900c-55.566 0-106.51-17.608-151.414-52.336-43.050-33.294-71.712-75.7-88.586-106.536-16.874 30.838-45.536 73.242-88.586 106.536-44.904 34.728-95.848 52.336-151.414 52.336-155.064 0-272-126.834-272-295.028 0-181.708 145.886-306.030 366.738-494.236 37.504-31.962 80.014-68.19 124.198-106.828 5.824-5.1 13.304-7.908 21.064-7.908s15.24 2.808 21.064 7.906c44.188 38.644 86.696 74.87 124.222 106.85 220.828 188.186 366.714 312.508 366.714 494.216 0 168.194-116.936 295.028-272 295.028z" />
<glyph unicode="&#xe90e;" glyph-name="save-money" d="M525.368 401.145c-1.895 0.41-3.838 0.484-5.757 0.197-19.232 2.239-33.741 18.511-33.774 37.866 0 9.276-7.521 16.797-16.797 16.797s-16.797-7.521-16.797-16.797c0.049-32.322 21.668-60.633 52.834-69.187v-16.797c0-9.276 7.521-16.797 16.797-16.797s16.797 7.521 16.797 16.797v15.78c35.972 7.529 60.42 41.032 56.639 77.586-3.789 36.554-34.585 64.332-71.336 64.34-21.061 0-38.137 17.075-38.137 38.137s17.075 38.137 38.137 38.137 38.137-17.075 38.137-38.137c0-9.276 7.521-16.797 16.797-16.797s16.797 7.521 16.797 16.797c-0.049 33.938-23.825 63.209-57.033 70.213v15.287c0 9.276-7.521 16.797-16.797 16.797s-16.797-7.521-16.797-16.797v-16.313c-34.659-9.464-56.967-43.115-52.194-78.726s35.16-62.192 71.090-62.183c20.782 0 37.735-16.641 38.112-37.415 0.385-20.774-15.952-38.030-36.718-38.785zM280.408 492.846c0-134.52 109.046-243.566 243.566-243.566s243.566 109.046 243.566 243.566-109.046 243.566-243.566 243.566c-134.454-0.148-243.411-109.112-243.566-243.566zM523.974 702.819c115.968 0 209.973-94.005 209.973-209.973s-94.005-209.973-209.973-209.973-209.973 94.005-209.973 209.973c0.131 115.911 94.062 209.842 209.973 209.973zM850.342 207.87l-131.576-62.167c-18.166 33.79-53.014 55.294-91.364 56.377l-121.463 3.338c-19.232 0.549-38.104 5.421-55.204 14.254l-12.36 6.405c-63.282 32.986-138.711 32.904-201.928-0.213l0.771 28c0.254 9.276-7.053 17.002-16.329 17.256l-133.191 3.666c-9.276 0.254-16.993-7.053-17.248-16.329l-8.046-292.283c-0.254-9.276 7.053-17.002 16.329-17.256l133.651-3.666c9.104 0 16.551 7.242 16.797 16.337l0.385 13.983 34.602 18.527c13.582 7.307 29.46 9.046 44.296 4.847l206.627-57.992c0.361-0.107 0.722-0.189 1.091-0.271 14.935-3.125 30.157-4.691 45.411-4.683 32.314-0.016 64.25 6.947 93.619 20.43 0.722 0.328 1.419 0.714 2.083 1.148l299.591 193.784c7.463 4.831 9.875 14.631 5.503 22.374-22.242 39.465-71.574 54.499-112.048 34.134zM96.449-17.965l7.119 258.706 99.607-2.739-7.119-258.715zM640.082-13.569c-36.488-16.468-77.241-21.012-116.46-12.999l-206.069 57.845c-23.194 6.553-48.019 3.838-69.237-7.57l-17.682-9.473 4.732 172.009c56.032 37.267 127.893 41.097 187.567 10.006l12.36-6.405c21.603-11.154 45.428-17.305 69.729-18.010l121.472-3.338c34.118-0.984 63.094-25.277 70.016-58.706l-180.932 4.995c-9.276 0.254-16.993-7.061-17.256-16.329-0.254-9.276 7.061-17.002 16.329-17.256l200.14-5.495c9.095 0.008 16.534 7.25 16.78 16.337 0.205 7.299-0.336 14.607-1.624 21.791l134.955 63.766c0.131 0.057 0.262 0.123 0.394 0.189 19.142 9.686 42.287 6.446 58.033-8.128zM540.771 783.636v159.567c0 9.276-7.521 16.797-16.797 16.797s-16.797-7.521-16.797-16.797v-159.567c0-9.276 7.521-16.797 16.797-16.797s16.797 7.521 16.797 16.797zM666.745 783.636v75.585c0 9.276-7.521 16.797-16.797 16.797s-16.797-7.521-16.797-16.797v-75.585c0-9.276 7.521-16.797 16.797-16.797s16.797 7.521 16.797 16.797zM414.796 783.636v75.585c0 9.276-7.521 16.797-16.797 16.797s-16.797-7.521-16.797-16.797v-75.585c0-9.276 7.521-16.797 16.797-16.797s16.797 7.521 16.797 16.797z" />
<glyph unicode="&#xe90f;" glyph-name="back" d="M896 490.667h-665.003l225.835 225.835c8.036 7.769 13.026 18.647 13.026 30.69 0 23.564-19.103 42.667-42.667 42.667-12.043 0-22.92-4.989-30.678-13.014l-298.679-298.679c-7.718-7.721-12.492-18.386-12.492-30.165s4.774-22.445 12.492-30.165l298.667-298.667c7.665-7.41 18.12-11.977 29.641-11.977 23.564 0 42.667 19.103 42.667 42.667 0 11.521-4.567 21.976-11.989 29.653l-225.823 225.823h665.003c23.564 0 42.667 19.103 42.667 42.667s-19.103 42.667-42.667 42.667v0z" />
<glyph unicode="&#xe910;" glyph-name="mineral-water" d="M380.473 941.164c0 0.032 0.001 0.071 0.001 0.109 0 5.993-4.858 10.85-10.85 10.85-0.038 0-0.076 0-0.115-0.001h-131.505c-0.030 0-0.065 0-0.101 0-5.993 0-10.85-4.858-10.85-10.85 0-0.038 0-0.076 0.001-0.115v0.006-54.796h153.429zM450.613 735.132l-52.606 39.454c-24.016 18.225-39.385 46.763-39.452 78.894v10.97h-109.592v-10.959c-0.067-32.142-15.437-60.681-39.208-78.727l-0.245-0.179-52.606-39.454c-50.652-38.516-83.077-98.74-83.289-166.547v-21.952c0-0.015 0-0.033 0-0.051 0-18.134 14.701-32.835 32.835-32.835 0.018 0 0.036 0 0.054 0h394.521c0.016 0 0.034 0 0.053 0 18.133 0 32.833 14.7 32.833 32.833 0 0.019 0 0.037 0 0.056v-0.003 21.918c-0.214 67.843-32.642 128.067-82.783 166.205l-0.515 0.376zM106.494 491.837h394.529c18.158 0 32.878-14.72 32.878-32.878v-21.918c0-18.158-14.72-32.878-32.878-32.878h-394.529c-18.158 0-32.878 14.72-32.878 32.878v21.918c0 18.158 14.72 32.878 32.878 32.878zM106.494 382.245h394.529c18.158 0 32.878-14.72 32.878-32.878v-21.918c0-18.158-14.72-32.878-32.878-32.878h-394.529c-18.158 0-32.878 14.72-32.878 32.878v21.918c0 18.158 14.72 32.878 32.878 32.878zM501.025 272.654h-394.531c-0.015 0-0.033 0-0.051 0-18.134 0-32.835-14.701-32.835-32.835 0-0.018 0-0.036 0-0.054v0.003-241.095c0-0.015 0-0.033 0-0.051 0-18.134 14.701-32.835 32.835-32.835 0.018 0 0.036 0 0.054 0h394.528c0.016 0 0.034 0 0.053 0 18.133 0 32.833 14.7 32.833 32.833 0 0.019 0 0.037 0 0.056v-0.003 241.103c0 0.013 0 0.029 0 0.045 0 18.133-14.7 32.833-32.833 32.833-0.019 0-0.037 0-0.056 0h0.003zM347.819 55.003c-10.74-14.903-26.742-23.452-44.056-23.452s-33.317 8.548-44.058 23.452c-7.856 10.896-12.565 24.517-12.565 39.237 0 7.766 1.311 15.226 3.723 22.171l-0.143-0.474 22.138 67.291c4.602 14.466 16.876 23.67 30.905 23.67s26.301-9.204 30.903-23.67l22.138-67.291c2.268-6.47 3.578-13.928 3.578-21.693 0-14.722-4.71-28.344-12.705-39.441l0.137 0.2zM313.842 176.431c-1.755 5.262-5.48 8.548-10.082 8.548s-8.33-3.287-10.084-8.548l-22.136-67.289c-1.565-4.443-2.469-9.566-2.469-14.9 0-9.935 3.137-19.137 8.474-26.671l-0.097 0.144c5.842-8.388 15.439-13.809 26.302-13.809s20.46 5.421 26.233 13.705l0.069 0.104c5.24 7.39 8.377 16.592 8.377 26.527 0 5.334-0.904 10.457-2.568 15.224l0.098-0.324zM939.392 382.245h-306.857c-6.086-0.051-11.001-4.997-11.001-11.090 0-0.34 0.015-0.676 0.045-1.008l-0.003 0.043 43.837-416.449c0.571-5.562 5.232-9.864 10.897-9.864 0.022 0 0.044 0 0.065 0h219.172c0.018 0 0.039 0 0.060 0 5.666 0 10.327 4.302 10.896 9.817l0.004 0.047c12.042 114.064 38.109 362.045 43.835 416.449 0.027 0.29 0.042 0.627 0.042 0.967 0 6.091-4.91 11.034-10.988 11.088h-0.005zM910.899 205.588l-64.441 13.81c-10.956 2.498-23.537 3.929-36.452 3.929-14.29 0-28.17-1.752-41.438-5.053l1.177 0.248c-59.439-14.362-103.763 4.293-110.688 5.478-17.426 166.756-13.716 131.239-14.247 136.332h282.305c-0.477-4.592 3.249 30.954-16.215-154.744z" />
<glyph unicode="&#xe911;" glyph-name="mortarboard" d="M1003.982 703.292l-482 170.062c-6.458 2.28-13.504 2.28-19.962 0l-482-170.062c-11.984-4.228-20.004-15.548-20.020-28.256s7.978-24.046 19.952-28.302l482-171.354c3.25-1.156 6.65-1.734 10.048-1.734 3.4 0 6.798 0.578 10.048 1.734l482 171.354c11.974 4.256 19.966 15.594 19.952 28.302-0.016 12.708-8.036 24.028-20.018 28.256zM951.946 302.852v261.68l-60-21.33v-240.35c-18.072-10.402-30.25-29.892-30.25-52.242 0-22.348 12.178-41.84 30.25-52.242v-147.432c0-16.568 13.432-30 30-30s30 13.432 30 30v147.43c18.072 10.4 30.25 29.894 30.25 52.242 0 22.35-12.176 41.842-30.25 52.244zM512 413.646c-10.298 0-20.44 1.75-30.146 5.2l-270.966 96.33v-132.016c0-32.298 33.694-59.612 100.146-81.18 57.922-18.8 129.294-29.154 200.966-29.154s143.042 10.354 200.966 29.154c66.452 21.568 100.146 48.882 100.146 81.18v132.016l-270.964-96.33c-9.708-3.45-19.85-5.2-30.148-5.2z" />
<glyph unicode="&#xe912;" glyph-name="doctor" d="M965.452-11.566l-45.3 265.206c-4.882 28.574-25.152 51.528-52.906 59.9l-122.184 36.866c-2.53 29.868-14.776 58.046-35.156 80.35-16.302 17.84-36.806 30.83-59.408 37.998 3.868 4.292 7.454 8.57 10.744 12.754 29.056 36.954 44.612 77.666 48.572 105.448h9.426c24.516 0 44.462 19.944 44.462 44.462v22.792c0 16.362-9.204 31.188-23.046 38.882v54.808c0 8.282-6.714 14.996-14.996 14.996s-14.994-6.712-14.994-14.996v-61.528c-5.84-1.014-12.808-2.766-19.936-5.768-0.73-0.266-1.44-0.574-2.112-0.944-1.61-0.734-3.222-1.508-4.828-2.38v120.844c0 33.386-27.16 60.546-60.546 60.546h-41.39c-14.276 0-28.222-4.974-39.274-14.010l-4.062-3.32c-7.46-6.1-16.876-9.46-26.514-9.46s-19.056 3.36-26.516 9.46l-4.060 3.32c-11.052 9.034-24.998 14.010-39.274 14.010h-41.394c-33.386 0-60.546-27.16-60.546-60.546v-120.844c-1.606 0.872-3.218 1.646-4.828 2.38-0.672 0.37-1.38 0.678-2.11 0.944-7.128 3.002-14.098 4.754-19.936 5.768v155.578c0 48.556 39.504 88.060 88.060 88.060h221.202c48.558 0 88.060-39.504 88.060-88.060v-23.572c0-8.282 6.714-14.996 14.994-14.996s14.996 6.712 14.996 14.996v23.572c0 65.092-52.958 118.050-118.050 118.050h-221.202c-65.094 0-118.050-52.958-118.050-118.050v-148.86c-13.842-7.694-23.046-22.518-23.046-38.882v-22.792c0-24.518 19.946-44.462 44.462-44.462h9.426c3.958-27.782 19.516-68.494 48.572-105.448 3.286-4.18 6.87-8.454 10.734-12.742-51.96-16.504-89.852-63.22-94.554-118.358l-122.188-36.866c-27.754-8.372-48.026-31.326-52.906-59.9l-18.396-107.698c-1.394-8.164 4.094-15.91 12.256-17.304 8.16-1.398 15.91 4.092 17.306 12.256l18.396 107.698c2.952 17.288 15.216 31.172 32.006 36.236l113.010 34.098v-29.662c-25.904-4.768-47.946-22.562-57.024-47.216-2.41-6.544-3.908-13.396-4.452-20.364l-10.922-140.19c-0.824-10.56 2.83-21.076 10.020-28.846 7.19-7.772 17.388-12.232 27.978-12.232h18.696c8.282 0 14.996 6.712 14.996 14.996s-6.714 14.994-14.996 14.994h-18.696c-2.258 0-4.43 0.948-5.964 2.608-1.532 1.656-2.31 3.896-2.134 6.146l10.922 140.192c0.33 4.222 1.236 8.372 2.696 12.334 6.316 17.15 23.372 28.764 42.446 28.898l2.47 0.018c0.116 0.002 0.23 0.002 0.344 0.002 18.538 0 34.948-10.512 41.87-26.854 1.942-4.582 3.122-9.426 3.51-14.398l10.926-140.194c0.174-2.248-0.604-4.488-2.136-6.146-1.532-1.656-3.706-2.606-5.964-2.606h-18.696c-8.282 0-14.996-6.712-14.996-14.994s6.714-14.996 14.996-14.996h18.696c10.59 0 20.79 4.458 27.978 12.232 7.192 7.774 10.846 18.288 10.022 28.844l-10.926 140.192c-0.64 8.204-2.59 16.202-5.796 23.768-9.878 23.314-31 39.524-55.876 43.91v38.612l51.548 15.554c4.69-9.878 13.984-31.224 32.394-77.238 18.554-46.428 41.616-105.938 63.734-163.79 0.158-0.486 0.34-0.96 0.544-1.424 14.76-38.622 29.078-76.45 41.324-109.082 2.196-5.852 7.79-9.728 14.040-9.728s11.844 3.876 14.040 9.728c12.244 32.632 26.562 70.46 41.324 109.082 0.206 0.464 0.386 0.94 0.544 1.424 22.102 57.818 45.152 117.29 63.698 163.704 18.434 46.074 27.736 67.438 32.428 77.324l51.548-15.554v-88.57c-35.716-6.938-62.77-38.438-62.77-76.154 0-42.782 34.806-77.59 77.59-77.59s77.59 34.806 77.59 77.59c0 37.592-26.876 69.016-62.42 76.090v79.584l113.012-34.098c16.79-5.064 29.052-18.948 32.006-36.236l45.3-265.206c0.752-4.398-0.418-8.698-3.296-12.108-2.876-3.408-6.918-5.288-11.38-5.288h-818.428c-4.462 0-8.502 1.878-11.38 5.288-2.876 3.41-4.048 7.708-3.296 12.108l14.95 87.524c1.394 8.164-4.094 15.91-12.256 17.304-8.16 1.4-15.91-4.094-17.306-12.256l-14.95-87.524c-2.23-13.064 1.392-26.366 9.936-36.496 8.548-10.128 21.050-15.936 34.302-15.936h818.428c13.252 0 25.756 5.808 34.302 15.938 8.544 10.13 12.166 23.432 9.936 36.496zM710.842 655.822c7.99 1.992 14.404 1.956 14.476 1.954 2.584-0.034 5.096 0.57 7.328 1.74 0.668-1.662 1.062-3.448 1.062-5.308v-22.792c0-7.98-6.492-14.472-14.472-14.472h-8.394v38.878zM313.158 616.944v0h-8.394c-7.98 0-14.472 6.492-14.472 14.472v22.792c0 1.86 0.396 3.646 1.062 5.306 2.23-1.17 4.742-1.774 7.328-1.738 0.114-0.020 6.51 0.016 14.476-1.962v-38.87zM343.148 600.13v39.396c4.544-1.362 9.514-1.176 14.102 0.738 7.87 3.284 12.954 10.91 12.954 19.432v138.428c0 16.848 13.708 30.556 30.556 30.556h41.39c7.376 0 14.582-2.57 20.292-7.238l4.060-3.32c12.802-10.468 28.96-16.23 45.498-16.23s32.696 5.764 45.498 16.23l4.060 3.32c5.708 4.668 12.916 7.238 20.292 7.238h41.39c16.848 0 30.556-13.708 30.556-30.556v-138.43c0-8.52 5.084-16.148 12.954-19.432 2.628-1.096 5.38-1.628 8.108-1.628 2.034 0 4.052 0.298 5.994 0.878v-39.382c0-21.894-15.136-64.41-43.188-100.086-9.292-11.818-21.236-24.514-35.942-35.61-0.466-0.312-0.912-0.65-1.338-1.010-22.782-16.844-52.076-29.748-88.384-29.748s-65.602 12.904-88.386 29.75c-0.426 0.358-0.87 0.696-1.334 1.006-14.706 11.098-26.65 23.794-35.944 35.612-28.050 35.674-43.188 78.192-43.188 100.086zM610.24 357.86l-98.24-73.428-98.24 73.428c9.742 12.382 15.2 28.276 15.2 42.46v24.172c23.102-12.424 50.668-20.808 83.040-20.808s59.94 8.384 83.040 20.808v-24.172c0-14.184 5.458-30.078 15.2-42.46zM388.734 374.598c-8.008 3.050-16.886 3.55-25.284 1.272-0.368-0.086-0.728-0.184-1.078-0.288l-51.806-15.632c8.762 43.084 43.746 77.376 88.404 84.018v-43.648c0-9.408-4.2-19.134-10.236-25.722zM429.432 254.222c-0.028 0.070-0.056 0.14-0.082 0.208-0.76 1.922-1.51 3.818-2.254 5.692-0.134 0.34-0.268 0.678-0.402 1.014-0.728 1.834-1.45 3.654-2.162 5.444-0.050 0.126-0.1 0.25-0.15 0.378-2.222 5.586-4.364 10.944-6.424 16.078-0.15 0.372-0.3 0.75-0.45 1.12-0.592 1.472-1.174 2.922-1.752 4.354-0.212 0.526-0.422 1.046-0.632 1.566-0.56 1.388-1.116 2.768-1.664 4.118-0.164 0.404-0.324 0.796-0.486 1.198-0.994 2.452-1.966 4.842-2.914 7.172-0.256 0.63-0.518 1.272-0.772 1.894-0.372 0.908-0.734 1.792-1.098 2.682-0.392 0.96-0.784 1.912-1.168 2.848-0.144 0.35-0.294 0.72-0.438 1.068-0.116 0.28-0.222 0.538-0.336 0.816-1.732 4.208-3.378 8.174-4.94 11.904-0.012 0.030-0.026 0.060-0.038 0.090-0.832 1.986-1.646 3.926-2.428 5.774-0.406 0.958-0.806 1.9-1.198 2.824l84.49-63.148-35.304-14.998c-0.062-0.026-0.126-0.052-0.188-0.080l-14.74-6.262c-0.836 2.114-1.654 4.186-2.47 6.246zM465.212 162.406c-2.962 7.686-5.946 15.416-8.936 23.138-4.676 12.078-9.142 23.562-13.416 34.502l5.596 2.378 22.864-26.578-6.108-33.44zM512.29 40.53c-0.43 0.892-0.942 1.734-1.534 2.518-6.776 17.91-15.376 40.572-24.894 65.506l14 76.65h24.276l14-76.65c-9.974-26.122-18.932-49.742-25.848-68.024zM529.762 215.192h-35.524l-16.81 19.54 34.572 14.686 34.572-14.686-16.81-19.54zM567.724 185.544c-2.99-7.722-5.974-15.452-8.936-23.138l-6.108 33.442 22.864 26.578 5.596-2.378c-4.274-10.94-8.74-22.426-13.416-34.504zM625.16 329.64c-0.742-1.752-1.514-3.59-2.3-5.466-0.102-0.244-0.206-0.49-0.308-0.736-0.778-1.86-1.57-3.76-2.39-5.738-0.054-0.13-0.11-0.268-0.164-0.4-0.708-1.706-1.434-3.466-2.172-5.26-0.138-0.336-0.268-0.646-0.406-0.984-0.164-0.402-0.34-0.828-0.506-1.234-0.328-0.8-0.662-1.616-0.998-2.432-0.412-1.006-0.822-2.008-1.244-3.038-0.134-0.328-0.272-0.67-0.408-1-1.044-2.558-2.116-5.194-3.212-7.902-0.172-0.424-0.342-0.84-0.514-1.27-0.542-1.338-1.094-2.704-1.648-4.078-0.216-0.538-0.434-1.074-0.652-1.618-0.572-1.418-1.15-2.854-1.734-4.31-0.164-0.406-0.33-0.822-0.494-1.23-2.034-5.064-4.144-10.346-6.334-15.85-0.072-0.182-0.144-0.36-0.216-0.544-0.708-1.778-1.424-3.586-2.148-5.408-0.134-0.34-0.27-0.68-0.406-1.022-0.748-1.884-1.502-3.788-2.266-5.722-0.014-0.036-0.028-0.072-0.042-0.106-0.824-2.084-1.652-4.18-2.496-6.32l-14.754 6.268c-0.052 0.022-0.104 0.044-0.154 0.066l-35.324 15.006 84.49 63.148c-0.396-0.92-0.796-1.86-1.2-2.82zM661.628 375.58c-0.002 0-0.006 0.002-0.008 0.002-0.012 0.004-0.026 0.006-0.038 0.012-8.7 2.61-17.98 2.178-26.314-0.996-6.038 6.588-10.236 16.314-10.236 25.722v43.67c44.938-6.624 79.816-40.594 88.464-84.058l-51.868 15.648zM778.002 163.25c0-26.248-21.354-47.6-47.6-47.6s-47.6 21.352-47.6 47.6c0 26.248 21.354 47.6 47.6 47.6s47.6-21.352 47.6-47.6z" />
<glyph unicode="&#xe913;" glyph-name="calendar" d="M891.482 899.765h-90.353v-90.353c0-18.071-15.059-30.118-30.118-30.118s-30.118 12.047-30.118 30.118v90.353h-481.882v-90.353c0-18.071-15.059-30.118-30.118-30.118s-30.118 12.047-30.118 30.118v90.353h-90.353c-45.176 0-78.306-39.153-78.306-90.353v-108.424h963.765v108.424c0 51.2-54.212 90.353-102.4 90.353zM30.118 637.741v-551.153c0-54.212 33.129-90.353 81.318-90.353h783.059c48.188 0 102.4 39.153 102.4 90.353v551.153zM298.165 131.765h-72.282c-12.047 0-24.094 9.035-24.094 24.094v75.294c0 12.047 9.035 24.094 24.094 24.094h75.294c12.047 0 24.094-9.035 24.094-24.094v-75.294c-3.012-15.059-12.047-24.094-27.106-24.094zM298.165 402.824h-72.282c-12.047 0-24.094 9.035-24.094 24.094v75.294c0 12.047 9.035 24.094 24.094 24.094h75.294c12.047 0 24.094-9.035 24.094-24.094v-75.294c-3.012-15.059-12.047-24.094-27.106-24.094zM539.106 131.765h-75.294c-12.047 0-24.094 9.035-24.094 24.094v75.294c0 12.047 9.035 24.094 24.094 24.094h75.294c12.047 0 24.094-9.035 24.094-24.094v-75.294c0-15.059-9.035-24.094-24.094-24.094zM539.106 402.824h-75.294c-12.047 0-24.094 9.035-24.094 24.094v75.294c0 12.047 9.035 24.094 24.094 24.094h75.294c12.047 0 24.094-9.035 24.094-24.094v-75.294c0-15.059-9.035-24.094-24.094-24.094zM780.047 131.765h-75.294c-12.047 0-24.094 9.035-24.094 24.094v75.294c0 12.047 9.035 24.094 24.094 24.094h75.294c12.047 0 24.094-9.035 24.094-24.094v-75.294c0-15.059-9.035-24.094-24.094-24.094zM780.047 402.824h-75.294c-12.047 0-24.094 9.035-24.094 24.094v75.294c0 12.047 9.035 24.094 24.094 24.094h75.294c12.047 0 24.094-9.035 24.094-24.094v-75.294c0-15.059-9.035-24.094-24.094-24.094z" />
<glyph unicode="&#xe914;" glyph-name="group" d="M694.272 939.52c-104.448 0-190.464-86.016-190.464-190.464 0-30.72 8.192-61.44 22.528-88.064l-20.48-90.112c0-4.096 0-6.144 2.048-10.24 2.048-2.048 4.096-4.096 6.144-4.096h2.048l90.112 20.48c26.624-14.336 57.344-22.528 88.064-22.528 104.448 0 190.464 86.016 190.464 190.464s-83.968 194.56-190.464 194.56zM806.912 738.816c-14.336-4.096-26.624-12.288-30.72-22.528s-2.048-26.624 6.144-38.912c-4.096-6.144-10.24-10.24-14.336-16.384-12.288 8.192-26.624 10.24-36.864 6.144-12.288-6.144-20.48-16.384-22.528-30.72-6.144 0-14.336 0-20.48 0-4.096 14.336-10.24 26.624-22.528 30.72s-24.576 2.048-36.864-6.144c-6.144 4.096-10.24 10.24-14.336 14.336 8.192 12.288 10.24 26.624 6.144 38.912s-16.384 20.48-30.72 22.528c0 6.144 0 14.336 0 22.528 14.336 4.096 26.624 12.288 30.72 22.528 4.096 12.288 2.048 26.624-6.144 38.912 4.096 6.144 10.24 10.24 14.336 16.384 12.288-8.192 26.624-10.24 38.912-6.144 12.288 6.144 20.48 16.384 22.528 30.72h20.48c2.048-14.336 10.24-26.624 22.528-30.72s24.576-2.048 38.912 6.144c6.144-4.096 10.24-10.24 14.336-14.336-8.192-12.288-10.24-26.624-6.144-36.864 4.096-12.288 16.384-20.48 30.72-22.528-4.096-10.24-4.096-16.384-4.096-24.576zM753.664 749.056c0-32.768-26.624-59.392-59.392-59.392s-59.392 26.624-59.392 59.392 26.624 59.392 59.392 59.392 59.392-26.624 59.392-59.392zM559.104 181.76c0 6.144 0 12.288-2.048 18.432v4.096c24.576 16.384 43.008 43.008 55.296 73.728h8.192c18.432 0 32.768 10.24 38.912 30.72 4.096 14.336 8.192 28.672 2.048 40.96-4.096 8.192-10.24 12.288-20.48 16.384-4.096 0-6.144 0-10.24 0 16.384 63.488-24.576 108.544-65.536 129.024-38.912 20.48-79.872 20.48-102.4 2.048-12.288 8.192-22.528 12.288-32.768 10.24-18.432-4.096-28.672-24.576-40.96-45.056-12.288-24.576-26.624-51.2-53.248-57.344-4.096-2.048-6.144-4.096-8.192-8.192 0-4.096 0-8.192 4.096-10.24 16.384-12.288 34.816-18.432 53.248-18.432-4.096 0-10.24 0-14.336-2.048-10.24-2.048-16.384-8.192-20.48-16.384-6.144-12.288-4.096-26.624 2.048-40.96 6.144-20.48 20.48-30.72 38.912-30.72 2.048 0 6.144 0 8.192 2.048 12.288-32.768 28.672-59.392 55.296-75.776v-4.096c0-6.144-2.048-12.288-2.048-18.432-69.632-6.144-145.408-26.624-145.408-120.832 0-57.344 51.2-104.448 114.688-104.448h165.888c61.44 0 112.64 47.104 114.688 104.448 0 96.256-75.776 116.736-143.36 120.832zM503.808 11.776l-22.528 14.336 14.336 77.824 8.192 6.144 4.096-4.096 16.384-81.92zM565.248 161.28h14.336l-32.768-53.248-20.48 16.384-4.096 4.096 26.624 28.672 8.192 8.192c2.048-4.096 4.096-4.096 8.192-4.096zM405.504 368.128c22.528 6.144 43.008 20.48 59.392 38.912 14.336-8.192 32.768-10.24 53.248-12.288 30.72-4.096 65.536-8.192 88.064-32.768 0-22.528-4.096-45.056-10.24-67.584-14.336-47.104-43.008-83.968-90.112-83.968-14.336 0-24.576 4.096-34.816 8.192-51.2 24.576-65.536 104.448-65.536 149.504zM438.272 161.28h18.432l26.624-28.672 8.192-8.192-24.576-18.432-32.768 53.248s2.048 0 4.096 2.048zM921.6 280.064c-10.24 2.048-18.432 4.096-28.672 4.096 0 4.096 0 8.192-2.048 14.336 18.432 12.288 32.768 32.768 40.96 57.344h4.096c14.336 0 26.624 8.192 32.768 26.624 4.096 10.24 6.144 22.528 2.048 32.768-4.096 6.144-10.24 10.24-16.384 12.288-2.048 0-2.048 0-4.096 0 12.288 49.152-20.48 86.016-53.248 102.4-30.72 16.384-61.44 16.384-79.872 2.048-10.24 6.144-18.432 8.192-26.624 6.144-16.384-4.096-24.576-20.48-32.768-36.864-10.24-18.432-18.432-38.912-38.912-45.056-4.096 0-6.144-4.096-8.192-8.192 0-4.096 0-8.192 4.096-10.24 10.24-6.144 18.432-12.288 28.672-14.336-6.144-2.048-12.288-6.144-16.384-12.288-6.144-10.24-2.048-22.528 0-32.768 6.144-16.384 18.432-26.624 32.768-26.624h4.096c8.192-24.576 22.528-45.056 40.96-57.344v-14.336c-8.192 0-18.432-2.048-26.624-4.096 0 0 0 0-2.048 0-43.008-8.192-81.92-30.72-81.92-94.208 0-47.104 40.96-83.968 90.112-83.968h126.976c49.152 0 90.112 36.864 90.112 83.968 2.048 67.584-38.912 90.112-79.872 98.304zM847.872 151.040l-12.288 10.24 10.24 59.392 4.096 4.096 12.288-61.44zM901.12 261.632l-20.48-36.864-14.336 10.24-2.048 2.048 24.576 26.624h2.048c4.096 0 8.192-2.048 10.24-2.048zM776.192 425.472c16.384 4.096 32.768 14.336 45.056 28.672 10.24-6.144 24.576-6.144 38.912-8.192 24.576-4.096 49.152-6.144 65.536-24.576-2.048-40.96-18.432-114.688-73.728-114.688-61.44 0-75.776 77.824-75.776 118.784zM808.96 263.68s2.048 0 0 0l24.576-26.624 2.048-2.048-16.384-10.24-22.528 36.864c4.096 0 8.192 2.048 12.288 2.048zM245.76 280.064c-10.24 2.048-18.432 4.096-28.672 4.096 0 4.096 0 8.192-2.048 12.288v2.048c18.432 12.288 32.768 32.768 40.96 57.344h4.096c14.336 0 26.624 8.192 32.768 26.624 4.096 10.24 6.144 22.528 0 32.768-4.096 6.144-8.192 10.24-16.384 12.288-2.048 0-2.048 0-4.096 0 12.288 49.152-20.48 86.016-53.248 102.4-30.72 16.384-61.44 16.384-79.872 2.048-10.24 6.144-18.432 8.192-26.624 6.144-16.384-4.096-24.576-18.432-32.768-36.864-10.24-18.432-18.432-38.912-38.912-43.008-4.096-2.048-6.144-4.096-8.192-8.192 0-4.096 0-8.192 4.096-10.24 10.24-6.144 18.432-12.288 28.672-14.336-6.144-2.048-12.288-6.144-16.384-12.288-6.144-10.24-2.048-22.528 0-32.768 6.144-16.384 18.432-26.624 32.768-26.624h4.096c8.192-24.576 22.528-45.056 40.96-57.344v-14.336c-8.192 0-18.432-2.048-26.624-4.096 0 0 0 0-2.048 0-43.008-8.192-81.92-30.72-81.92-94.208 0-47.104 40.96-83.968 90.112-83.968h126.976c49.152 0 90.112 36.864 90.112 83.968 4.096 65.536-36.864 88.064-77.824 96.256zM100.352 425.472c16.384 4.096 32.768 14.336 43.008 28.672 12.288-6.144 26.624-8.192 40.96-10.24 24.576-4.096 49.152-6.144 65.536-24.576-2.048-40.96-18.432-114.688-73.728-114.688-61.44 2.048-75.776 79.872-75.776 120.832zM122.88 261.632c4.096 0 8.192 0 10.24 2.048h2.048l22.528-24.576 2.048-2.048-16.384-12.288zM172.032 151.040l-12.288 10.24 10.24 59.392 4.096 2.048 12.288-61.44zM204.8 224.768l-14.336 10.24-2.048 2.048 24.576 26.624h2.048c4.096 0 8.192 0 10.24-2.048z" />
<glyph unicode="&#xe915;" glyph-name="stress" d="M630.823 221.358c-72.163-47.647-165.509-47.61-237.672 0l-72.37-206.34c-3.158-9.718-9.652-20.204-16.097-27.597h414.62c-7.971 9.138-11.577 16.237-16.083 27.597zM724.707 334.111c0-22.206 3.953-41.191 12.798-61.563l100.737-232.589c-1.489-29.215-25.711-52.537-55.298-52.537-23.476 0-44.503 14.954-52.308 37.212-0.039 0.117-0.076 0.231-0.154 0.346l-92.023 262.369c-4.942 14.121-7.047 26.532-7.047 41.486v55.093c0 19.831-3.183 36.917-10.308 55.427l-21.565 56.107c-2.542 6.572 2.22 13.541 9.267 13.541h62.333c4.108 0 7.303-2.054 9.036-5.79l33.016-71.51c7.971-17.291 11.514-33.489 11.514-52.525v-45.068zM896.326 39.6l-57.635 253.463c-4.004 17.611-17.445 58.61-55.747 58.61h-29.188c0-26.225-0.829-41.64 10.41-67.531l102.021-235.543c0.795-1.835 1.206-3.799 1.206-5.775 0-21.012-7.727-40.229-20.486-55.015 25.1 2.865 55.615 24.523 49.418 51.792zM392.598 328.835c0-14.954-2.105-27.367-7.059-41.486l-92.023-262.345c-0.063-0.115-0.102-0.244-0.166-0.373-7.817-22.258-28.817-37.212-52.308-37.212-29.587 0-53.821 23.323-55.325 52.537l100.764 232.616c8.843 20.357 12.798 39.33 12.798 61.536v45.068c0 19.036 3.555 35.236 11.54 52.525l33.001 71.51c1.72 3.736 4.942 5.79 9.036 5.79h62.319c7.072 0 11.835-6.945 9.279-13.529l-21.578-56.119c-7.098-18.51-10.281-35.594-10.281-55.427v-55.091zM157.813 48.597l102.021 235.543c11.229 25.868 10.398 41.322 10.398 67.531h-29.19c-38.277 0-51.73-40.999-55.747-58.61l-57.62-253.46c-6.193-27.247 24.295-48.919 49.394-51.794-12.72 14.787-20.447 34.003-20.447 55.015-0.002 1.976 0.41 3.94 1.192 5.775zM462.877 812.526h-31.242c-4.737 0-7.727-5.237-5.276-9.318l80.368-134.265c2.374-3.992 8.151-3.992 10.551 0l80.353 134.265c2.425 4.055-0.514 9.318-5.263 9.318h-31.242l39.51 87.362c1.823 4.018-1.194 8.69-5.609 8.69h-166.060c-4.415 0-7.406-4.674-5.609-8.69zM671.578 623.411c2.529-1.823 5.994-1.477 8.112 0.821l190.874 208.241c3.607 3.928 0.834 10.308-4.53 10.308h-37.007l33.489 51.216c2.671 4.082-0.295 9.525-5.161 9.525h-82.395c-2.169 0-4.172-1.155-5.29-3.017l-56.426-95.449c-2.427-4.069 0.565-9.279 5.288-9.279h41.654l-90.429-164.405c-1.489-2.71-0.692-6.162 1.823-7.961zM451.58 485.038c9.832 25.557-9.011 53-36.403 53h-29.907c71.164 66.183 182.299 66.195 253.463 0h-29.921c-27.404 0-46.223-27.404-36.391-53l21.578-56.119c5.865-15.223 8.37-28.676 8.37-44.99v-55.093c0-31.539 8.522-50.627 18.51-79.096-64.848-46.828-152.904-46.84-217.752 0 9.959 28.42 18.522 47.649 18.522 79.096v55.093c0 16.314 2.503 29.768 8.344 44.99zM153.424 832.473c-3.607 3.928-0.809 10.308 4.53 10.308h37.007l-33.503 51.229c-2.671 4.082 0.295 9.511 5.173 9.511h82.395c2.169 0 4.211-1.155 5.288-3.017l56.426-95.449c2.4-4.069-0.565-9.279-5.3-9.279h-41.64l90.417-164.405c3.469-6.324-5.077-12.444-9.91-7.137z" />
<glyph unicode="&#xe916;" glyph-name="growth" d="M240 928c-114.688 0-208-93.305-208-208s93.312-208 208-208 208 93.305 208 208-93.312 208-208 208zM192 736h96c26.469 0 48-21.531 48-48s-21.531-48-48-48h-32v-32c0-8.836-7.156-16-16-16s-16 7.164-16 16v32h-64c-8.844 0-16 7.164-16 16s7.156 16 16 16h128c8.828 0 16 7.18 16 16s-7.172 16-16 16h-96c-26.469 0-48 21.531-48 48s21.531 48 48 48h32v32c0 8.836 7.156 16 16 16s16-7.164 16-16v-32h64c8.844 0 16-7.164 16-16s-7.156-16-16-16h-128c-8.828 0-16-7.18-16-16s7.172-16 16-16zM976 672h-80v48c0 44.109-35.891 80-80 80h-64c-44.109 0-80-35.891-80-80v-277.5l-64-64v53.5c0 44.109-35.891 80-80 80h-64c-44.109 0-80-35.891-80-80v-144h-32c-11.227 0-22.297-3.172-32-8.779v24.779c0 44.109-35.891 80-80 80h-64c-44.109 0-80-35.891-80-80v-320c0-8.836 7.156-16 16-16h192c8.844 0 16 7.164 16 16v136.008l53.328 39.992h10.672v-176c0-8.836 7.156-16 16-16h192c8.844 0 16 7.164 16 16v213.5l64 64v-277.5c0-8.836 7.156-16 16-16h192c8.844 0 16 7.164 16 16v501.5l1.937 1.937 66.75-66.75c4.594-4.586 11.453-5.961 17.437-3.469 5.984 2.477 9.875 8.312 9.875 14.781v224c0 8.836-7.156 16-16 16zM960 470.625l-50.75 50.75c-6.25 6.25-16.375 6.25-22.625 0l-320-320c-6.047-6.047-14.078-9.375-22.625-9.375h-176c-3.469 0-6.828-1.125-9.594-3.203l-115.219-86.398c-13.703-10.312-34.516-7.312-44.797 6.406-10.578 14.109-7.703 34.203 6.406 44.797l128 96c5.594 4.188 12.234 6.398 19.203 6.398h172.125c4.25 0 8.312 1.688 11.312 4.688l305.937 305.937c6.25 6.25 6.25 16.375 0 22.625l-50.75 50.75h169.375v-169.375z" />
<glyph unicode="&#xe917;" glyph-name="shape" d="M939.274 37.017v374.297c0 23.405-13.352 53.089-32.663 66.316l-364.446 251.088c-19.311 13.228-50.649 13.119-69.889-0.216l-341.326-236.548c-19.223-13.335-35.214-43.11-35.214-66.515v-388.421c0-23.405 19.76-46.682 43.164-46.682h762.703c23.403-0.002 37.671 23.277 37.671 46.68zM522.963 91.075l-3.161-1.83c-196.741 79.416-272.552 262.86-185.901 342.297 86.633 79.418 185.901-28.412 185.901-28.412h0.719c0 0 99.27 107.83 185.919 28.412 86.633-79.437 13.264-261.047-183.478-340.467zM1005.466 568.482l-463.282 316.559c-19.33 13.209-50.469 12.958-69.583-0.556l-454.686-321.334c-19.097-13.497-23.656-39.951-10.141-59.046l1.113-1.58c13.515-19.114 39.951-23.656 59.065-10.141l403.141 284.919c19.114 13.515 50.308 13.819 69.69 0.719l415.972-281.454c19.384-13.119 45.73-8.041 58.834 11.342l1.094 1.616c13.136 19.347 8.093 45.766-11.218 58.956zM797.022 746.093c18.915-13.765 34.566-5.081 34.566 18.324v105.944c0 23.386-19.563 35.304-42.967 35.304h-70.623c-23.403 0-42.372-13.855-42.372-35.304s15.345-48.243 34.26-61.991l87.136-62.277z" />
<glyph unicode="&#xe918;" glyph-name="handshake" d="M357.82 178.472c-0.489-4.87-0.068-9.956 1.707-14.996 4.335-12.151 14.507-22.050 26.556-25.782 11.196-3.538 22.335-1.183 25.714 2.492l23.359 25.065c6.758 7.225 8.465 18.773 4.494 29.98-9.774 18.728-22.869 25.486-39.64 28.513zM326.576 303.798l-40.823-43.782c-8.294-9.023-10.672-22.892-6.042-36.181 4.915-14.040 16.646-25.463 30.686-29.73 13.289-3.982 26.624-0.887 34.975 7.999l37.797 40.539c8.351 9 10.672 22.801 6.042 36.090-4.915 14.108-16.714 25.486-30.686 29.73-11.15 3.561-24.235 3.698-31.949-4.665zM245.646 375.842l-37.695-40.471c-8.306-8.954-10.627-22.869-6.042-36.204 4.915-13.995 16.646-25.418 30.686-29.685 13.266-4.039 26.738-0.887 30.936 3.561l41.847 44.908c8.351 9.023 10.672 22.892 6.042 36.159-4.938 14.086-16.668 25.463-30.709 29.685-12.914 4.21-27.204 0.466-35.066-7.953zM171.907 455.623l-41.779-44.931c-8.351-9-10.672-22.801-6.042-36.022 4.87-14.154 16.668-25.532 30.709-29.798 13.266-3.959 26.715-0.887 30.868 3.618l41.893 44.908v0.046c8.351 8.886 10.672 22.71 6.042 35.977-4.847 14.154-16.646 25.532-30.686 29.753-10.729 3.698-23.711 4.335-31.004-3.55zM714.308 723.581c-27.022-15.11-64.58-17.818-101.16-20.446-27.671-1.889-56.218-3.891-76.732-11.469l-114.062-42.086c-0.774-0.307-1.559-0.489-2.378-0.603-5.507-0.865-10.604-1.604-15.178-2.241-27.773-3.914-30.982-5.109-34.179-13.335-2.913-7.6 0.284-18.557 8.181-27.864 6.44-7.646 31.642-31.516 83.49-19.24l64.956 8.579c36.375 4.688 65.536-19.024 88.826-38.161l174.683-139.742 0.137 0.068c34.532 14.45 70.508 33.246 101.092 70.087zM473.953 732.069c-10.354-0.956-22.221-2.264-34.668-3.561-68.847-7.35-107.019-10.24-126.441-6.645l-178.734-232.641c6.576-6.224 12.026-12.686 16.418-19.684 14.939 15.292 37.513 20.753 59.494 14.108 21.572-6.508 39.583-23.996 47.115-45.693 3.197-9.182 4.198-18.603 3.379-27.625 8.818 1.24 18.136 0.728 27.307-2.071 21.515-6.463 39.595-23.996 47.070-45.693 3.243-9.136 4.267-18.534 3.493-27.557 8.818 1.24 18.136 0.717 27.307-2.139 21.47-6.508 39.47-23.996 47.002-45.579 4.733-13.687 4.915-27.773 1.070-40.402 2.196-0.421 4.449-0.956 6.69-1.661 19.263-5.973 35.624-21.8 42.667-41.313 6.713-18.887 3.8-38.73-7.225-52.975l31.71-25.361c7.76-6.155 19.069-6.827 29.628-1.707 11.446 5.552 20.093 16.828 22.642 29.446 1.070 5.268 0.717 10.377-0.489 15.11l-40.22 32.176c-5.404 4.335-6.36 12.334-2.139 17.886 4.267 5.507 12.095 6.531 17.533 2.196l48.356-38.753c4.801-3.846 18.557-4.87 31.175 1.070 13.266 6.337 23.29 19.399 26.066 33.974 2.662 13.778-1.604 27.136-11.093 34.782l-43.736 34.998c-5.45 4.335-6.406 12.356-2.139 17.84 4.221 5.575 12.095 6.599 17.488 2.196l63.579-50.847c9.557-7.6 23.29-8.647 35.977-2.731 13.153 6.292 23.177 19.331 26.021 34.065 2.662 13.778-1.604 27.090-11.196 34.805l-63.602 50.779c-5.45 4.38-6.406 12.379-2.139 17.977 4.267 5.484 12.095 6.44 17.556 2.116 0 0 96.575-77.221 96.643-77.221 4.801-3.777 18.489-4.847 31.050 1.161 13.289 6.201 23.245 19.24 26.135 33.929 2.617 13.801-1.65 27.204-11.196 34.782l-189.019 151.268c-21.686 17.783-44.089 36.204-70.11 32.711l-63.647-8.306c-42.906-10.308-83.376-0.114-106.78 27.557-14.108 16.668-18.91 37.285-12.572 53.862 8.886 22.994 25.907 25.372 53.999 29.332 4.198 0.535 8.715 1.195 13.687 1.98l112.89 41.643c7.339 2.731 15.462 4.619 23.871 6.292-29.025 11.23-50.062 11.901-77.87 10.126zM228.625 776.158c-20.56 1.559-39.333-13.938-66.355-49.129l-69.109-90.021c-24.997-32.472-34.361-52.668-32.29-69.78 1.661-14.063 11.446-27.864 21.151-35.647l32.779-26.18 178.005 231.686-23.040 18.443c-15.838 12.629-28.809 19.672-41.142 20.628zM799.425 776.397c-12.334-0.774-25.418-7.669-41.381-20.116l-23.29-18.068 175.536-233.574 22.687 17.647c19.627 15.223 29.639 28.843 31.471 42.894 2.264 17.067-6.804 37.422-31.403 70.315l-67.982 90.886c-26.487 35.556-45.022 51.337-65.638 50.017z" />
<glyph unicode="&#xe919;" glyph-name="time" d="M512-64c282.698 0 512 229.302 512 512s-229.302 512-512 512-512-229.302-512-512 229.302-512 512-512zM475.428 740.571c0 20.115 16.457 36.572 36.572 36.572s36.572-16.457 36.572-36.572v-275.017l169.143-135.314c15.727-12.617 18.285-35.656 5.668-51.382-7.132-8.96-17.737-13.714-28.526-13.714-8.046 0-16.092 2.561-22.856 8.046l-182.857 146.284c-8.594 6.95-13.714 17.371-13.714 28.526v292.571z" />
<glyph unicode="&#xe91a;" glyph-name="map" d="M512 928c-194.404 0-352-157.596-352-352v0c0-185.92 313.6-579.2 327.040-596.16 5.914-7.327 14.894-11.975 24.96-11.975s19.046 4.648 24.912 11.914l0.048 0.061c13.44 16.96 327.040 410.24 327.040 596.16 0 194.404-157.596 352-352 352v0zM512 480c-70.692 0-128 57.308-128 128s57.308 128 128 128c70.692 0 128-57.308 128-128v0c0-70.692-57.308-128-128-128v0z" />
<glyph unicode="&#xe91b;" glyph-name="play" d="M946.685 492.645l-819.197 460.799c-15.872 8.909-35.225 8.704-50.893-0.41-15.77-9.216-25.395-26.010-25.395-44.237v-921.597c0-18.227 9.626-35.021 25.395-44.237 7.987-4.608 16.896-6.963 25.805-6.963 8.602 0 17.306 2.15 25.088 6.554l819.197 460.799c16.077 9.114 26.112 26.112 26.112 44.646s-10.035 35.533-26.112 44.646z" />
<glyph unicode="&#xe91c;" glyph-name="dribble" d="M377.246 922.71c39.342-46.98 135.68-169.522 212.73-327.938 96.328 27.098 197.484 75.152 296.778 154.786l23.978 19.226c-93.93 116.522-237.76 191.216-398.732 191.216-51.352 0-100.95-7.632-147.754-21.766zM924.292 702.75c-95.648-76.708-198.92-131.436-308.7-163.858 15.298-35.456 28.626-70.662 39.944-105.49 100.944 8.586 214.96-5.55 339.218-42.114l25.236-7.426c2.64 21.016 4.010 42.42 4.010 64.138 0 99.824-28.744 193.046-78.348 271.882zM62.248 619.166c50.878-19.296 163.632-54.614 305.796-54.618 50.94-0.002 105.66 4.542 162.66 15.972-70.718 141.712-156.52 252.392-199.46 303.672l-26.678 31.858c-124.15-55.238-222.396-158.456-271.080-285.976zM197.056 69.97c22.554 67.144 79.060 192.436 204.102 277.168 56.972 38.604 122.25 64.792 194.496 78.2-11.39 33.912-24.354 66.86-38.338 98.574-53.798-11.804-109.046-18.474-165.64-19.892-7.578-0.192-15.106-0.284-22.542-0.284-148.77-0.002-268.492 36.696-328.164 59.328l-25.568 9.696c-10.040-39.95-15.402-81.738-15.402-124.76 0-160.568 74.318-304.082 190.34-398.026zM977.818 333.73c-119.694 35.22-220.326 46.204-304.888 40.62 7.61-28.99 13.776-57.656 18.46-85.914 18.058-108.92 14.368-213.052-10.974-309.508l-4.182-15.914c163.796 55.616 290.576 192.048 332.69 361.562zM622.384-5.824c33.27 126.628 22.96 254.562-9.126 373.15-235.744-40.792-326.916-219.968-359.328-316.46l-12.536-37.316c78.568-49.114 171.322-77.55 270.606-77.55 33.356 0 65.966 3.244 97.562 9.364z" />
<glyph unicode="&#xe91d;" glyph-name="youtube-1" d="M971.719 687.947c-11.062 41.127-43.488 73.547-84.609 84.621-75.123 20.555-375.621 20.555-375.621 20.555s-300.486 0-375.609-19.775c-40.33-11.062-73.547-44.279-84.609-85.4-19.77-75.117-19.77-230.9-19.77-230.9s0-156.568 19.77-230.9c11.074-41.121 43.488-73.541 84.615-84.615 75.908-20.561 375.615-20.561 375.615-20.561s300.486 0 375.609 19.775c41.127 11.068 73.547 43.488 84.621 84.609 19.764 75.123 19.764 230.9 19.764 230.9s0.791 156.574-19.775 231.691zM415.816 313.129v287.836l249.879-143.918z" />
<glyph unicode="&#xe91e;" glyph-name="facebook-1" d="M510.365 944.484q138.46-1.58 250.17-68.059c73.972-44.179 134.012-104.566 176.511-176.542l1.271-2.327q66.074-112.383 67.649-251.686-3.924-190.6-120.233-325.582c-77.54-89.988-176.85-145.66-279.655-167.002v356.255h97.194l21.98 140h-147.174v91.696c-0.047 1.021-0.073 2.218-0.073 3.422 0 18.655 6.41 35.813 17.149 49.392l-0.127-0.167q17.655 22.505 62.179 23.657h88.873v122.637q-1.913 0.615-36.3 4.867c-23.286 2.885-50.471 4.648-78.023 4.865l-0.297 0.002q-88.866-0.41-140.562-50.135-51.698-49.711-52.817-143.842v-106.395h-112v-140h112v-356.255c-126.23 21.342-225.54 77.014-303.080 167.002s-117.616 198.516-120.232 325.582q1.57 139.309 67.647 251.686c43.771 74.303 103.811 134.69 175.51 177.608l2.274 1.261q111.707 66.466 250.168 68.059z" />
<glyph unicode="&#xe91f;" glyph-name="twitter-sign" d="M967.665 903.672c-37.54 37.55-82.77 56.328-135.654 56.328h-640.005c-52.884 0-98.114-18.778-135.671-56.328-37.55-37.557-56.328-82.784-56.328-135.671v-639.998c0-52.882 18.778-98.114 56.328-135.671 37.557-37.557 82.787-56.335 135.671-56.335h639.998c52.884 0 98.114 18.778 135.654 56.335 37.557 37.557 56.335 82.787 56.335 135.671v639.998c-0.002 52.886-18.781 98.121-56.328 135.671zM783.339 565.997c0.446-4 0.672-9.989 0.672-18.003 0-37.335-5.45-74.78-16.334-112.325-10.884-37.564-27.553-73.563-50.007-108.005-22.43-34.44-49.209-64.893-80.316-91.335-31.114-26.433-68.442-47.553-112.007-63.319-43.544-15.79-90.219-23.684-139.993-23.684-77.327 0-148.882 20.903-214.663 62.663 10.666-1.326 21.784-1.996 33.333-1.996 64.447 0 122.447 20 174.005 60.011-30.218 0.432-57.223 9.758-80.998 27.999-23.782 18.22-40.333 41.328-49.669 69.33 11.551-1.775 20.217-2.655 25.994-2.655 9.777 0 21.113 1.775 33.998 5.322-32.443 6.232-59.772 22.328-81.995 48.328-22.227 26.003-33.337 55.667-33.337 88.998v1.333c23.549-11.103 45.771-16.88 66.663-17.331-40.445 27.117-60.667 66-60.667 116.666 0 24.892 6.44 48.445 19.329 70.668 35.107-43.114 77.783-77.554 127.998-103.33 50.22-25.774 104.003-40.226 161.333-43.334-2.218 8.444-3.332 19.115-3.332 31.999 0 38.673 13.667 71.667 41.003 99.003 27.327 27.334 60.33 41.006 98.992 41.006 40.898 0 74.906-14.671 102.013-44.006 30.668 5.777 60.459 17.116 89.339 33.998-11.108-34.213-31.787-60.216-61.995-77.995 28.88 4.007 55.761 11.558 80.645 22.669-18.664-28.443-42.005-52.665-70.005-72.674z" />
<glyph unicode="&#xe920;" glyph-name="star" d="M1024 564.368l-372.078 24.462-140.126 352.032-140.126-352.032-371.67-24.462 285.068-242.052-93.544-367.178 320.272 202.442 320.274-202.442-93.544 367.178z" />
<glyph unicode="&#xe921;" glyph-name="mail" d="M42.667 309.333c-17.673 0-32-14.327-32-32s14.327-32 32-32h128c17.673 0 32 14.327 32 32s-14.327 32-32 32zM42.667 181.333c-17.673 0-32-14.327-32-32s14.327-32 32-32h256c17.673 0 32 14.327 32 32s-14.327 32-32 32zM132.644 742.824l-4.644 3.843c13.158 18.111 27.162 31.432 45.272 44.591 56.078 40.743 136.073 40.743 296.061 40.743h85.333c159.987 0 239.983 0 296.060-40.743 18.112-13.158 31.010-25.020 44.169-43.131l-5.359-5.329-98.47-98.471c-71.753-71.751-123.337-123.238-167.829-157.188-43.755-33.382-76.868-46.771-111.241-46.771-34.377 0-67.49 13.389-111.244 46.771-44.493 33.95-96.078 85.437-167.828 157.188l-82.912 82.912zM85.333 448c0 112.637 0 185.623 14.217 238.529l6.427-5.768 83.421-83.421c69.644-69.643 124.222-124.222 172.531-161.082 49.448-37.726 96.071-59.891 150.065-59.891 53.99 0 100.617 22.165 150.063 59.891 48.307 36.86 102.886 91.439 172.531 161.081l89.715 89.718c14.362-52.948 14.362-126.046 14.362-239.057 0-159.987 0-239.983-40.742-296.060-13.158-18.112-29.086-34.039-47.198-47.198-56.077-40.742-136.073-40.742-296.060-40.742h-85.333c-60.943 0-110.28 0-151.108 2.253 37.702 8.841 65.775 42.684 65.775 83.081 0 47.13-38.205 85.333-85.333 85.333h-54.083c7.261 12.553 11.416 27.123 11.416 42.667 0 47.13-38.205 85.333-85.333 85.333h-85.026c-0.308 25.647-0.308 53.952-0.308 85.333z" />
<glyph unicode="&#xe922;" glyph-name="folder" d="M897.83 723.482h-324.099c-13.156 0-26.006 5.402-34.88 14.584l-101.126 106.528c-24.308 24.23-57.566 36.886-91.25 36.692h-220.308c-69.566 0.002-126.168-56.6-126.168-126.164v-614.245c0-69.566 56.602-126.168 126.168-126.168h772.242c69.528 0.308 125.898 57.18 125.588 126.554v456.053c0 69.566-56.602 126.166-126.168 126.166zM946.832 141.108c0.116-27.008-21.76-49.116-48.614-49.232h-772.050c-27.008 0-49 21.992-49 49v614.247c0 27.008 21.992 49 49 49.040h221.312c0.424 0 0.848 0 1.274 0 12.886 0 25.388-5.132 33.798-13.466l100.586-106.026c23.612-24.384 56.64-38.352 90.594-38.352h324.099c27.008 0 49-21.992 49-49v-456.211z" />
<glyph unicode="&#xe923;" glyph-name="account" d="M512 416c-106.039 0-192 85.961-192 192s85.961 192 192 192c106.039 0 192-85.961 192-192v0c0-106.039-85.961-192-192-192v0zM512 736c-70.692 0-128-57.308-128-128s57.308-128 128-128c70.692 0 128 57.308 128 128v0c0 70.692-57.308 128-128 128v0zM512-32c-149.084 0.103-282.252 68.156-370.224 174.86l-0.656 0.82-16.64 20.48 16.64 20.16c88.691 107.377 221.854 175.29 370.88 175.29s282.189-67.913 370.229-174.479l0.651-0.811 16.64-20.16-16.64-20.48c-88.628-107.524-221.796-175.577-370.862-175.68h-0.018zM208.32 163.84c76.128-81.341 184.145-132.028 304-132.028s227.872 50.687 303.784 131.795l0.216 0.233c-76.128 81.341-184.145 132.028-304 132.028s-227.872-50.687-303.784-131.795l-0.216-0.233zM512-32c-0.095 0-0.207 0-0.32 0-265.097 0-480 214.903-480 480s214.903 480 480 480c265.097 0 480-214.903 480-480 0-115.894-41.073-222.194-109.456-305.14l0.656 0.82c-88.628-107.524-221.796-175.577-370.862-175.68h-0.018zM512 864c-229.75 0-416-186.25-416-416s186.25-416 416-416c229.75 0 416 186.25 416 416v0c0 229.75-186.25 416-416 416v0zM165.76 163.84s322.24-360 650.24-35.84l42.24 35.84s-273.92 284.16-552 113.6zM672 608c0-88.366-71.634-160-160-160s-160 71.634-160 160c0 88.366 71.634 160 160 160s160-71.634 160-160z" />
<glyph unicode="&#xe924;" d="M839.055 509.42l-138.732 80.128-142.029-142.029 142.019-142.019 139.213 80.394c21.709 13.189 34.662 36.229 34.662 61.624s-12.964 48.435-35.133 61.901z" />
<glyph unicode="&#xe925;" d="M558.295 447.519l-386.857 389.642c-13.455-13.455-21.627-31.713-21.627-51.896v-674.304c0-20.183 8.172-38.441 21.627-51.907z" />
<glyph unicode="&#xe926;" d="M558.295 447.519l142.254 142.254-190.3 109.568-250.86 147.436c-22.589 13.937-49.981 14.418-73.052 1.444-5.284-3.359-10.097-6.728-14.899-11.049z" />
<glyph unicode="&#xe927;" d="M171.438 59.064c4.803-4.321 9.615-7.69 14.899-11.049 11.53-6.246 23.552-9.615 35.564-9.615 12.974 0 25.467 3.84 37.007 10.568l251.331 146.729 190.3 109.568-142.244 142.254z" />
<glyph unicode="&#xe928;" glyph-name="apple" d="M703.956 960c-54.592-3.776-118.399-38.72-155.583-84.224-33.92-41.28-61.824-102.591-50.944-162.175 59.648-1.856 121.279 33.92 156.991 80.192 33.408 43.072 58.688 103.999 49.536 166.207zM919.699 616.45c-52.416 65.728-126.079 103.871-195.647 103.871-91.839 0-130.687-43.968-194.495-43.968-65.792 0-115.775 43.84-195.199 43.84-78.016 0-161.087-47.68-213.759-129.215-74.048-114.815-61.376-330.686 58.624-514.557 42.944-65.792 100.287-139.775 175.295-140.415 66.752-0.64 85.567 42.816 175.999 43.264 90.431 0.512 107.583-43.84 174.207-43.136 75.072 0.576 135.551 82.56 178.495 148.351 30.784 47.168 42.24 70.912 66.112 124.159-173.631 66.112-201.471 313.022-29.632 407.806z" />
<glyph unicode="&#xe929;" glyph-name="shield" d="M512 898.062l-384-139.656v-310.406c0-350.75 372.625-446.156 376.375-447.094l7.625-1.844 7.625 1.844c3.75 0.938 376.375 96.344 376.375 447.094v310.406l-384 139.656zM448 274.75l-150.625 150.625 45.25 45.25 105.375-105.375 233.375 233.375 45.25-45.25-278.625-278.625z" />
<glyph unicode="&#xe92a;" glyph-name="headphone" d="M213.333 533.333h42.667c70.692 0 128-57.308 128-128v-85.333c0-70.692-57.308-128-128-128h-42.667c-70.692 0-128 57.308-128 128v85.333c0 70.692 57.308 128 128 128zM768 533.333h42.667c70.692 0 128-57.308 128-128v-85.333c0-70.692-57.308-128-128-128h-42.667c-70.692 0-128 57.308-128 128v85.333c0 70.692 57.308 128 128 128zM789.333 448c-23.564 0-42.667 19.103-42.667 42.667v0 64c0 129.603-105.064 234.667-234.667 234.667s-234.667-105.064-234.667-234.667v0-64c0-23.564-19.103-42.667-42.667-42.667s-42.667 19.103-42.667 42.667v0 64c0 176.731 143.269 320 320 320s320-143.269 320-320v0-64c0-23.564-19.103-42.667-42.667-42.667v0zM704 21.333h-170.667c-23.564 0-42.667 19.103-42.667 42.667s19.103 42.667 42.667 42.667v0h170.667c23.564 0 42.667 19.103 42.667 42.667v0 85.333c0 23.564 19.103 42.667 42.667 42.667s42.667-19.103 42.667-42.667v0-85.333c0-70.692-57.308-128-128-128v0z" />
<glyph unicode="&#xe92b;" glyph-name="right-up" d="M682.833 558.336l-367.232-367.232-60.331 60.331 367.189 367.232h-323.626v85.333h469.333v-469.333h-85.333z" />
<glyph unicode="&#xe92c;" glyph-name="star-half-empty" d="M1022.799 564.932c-3.688 11.287-14.77 18.366-33.218 21.235l-308.946 44.92-138.462 280.022c-8.622 16.822-18.67 25.229-30.155 25.229-11.897 0-21.95-8.407-30.152-25.229l-138.477-280.022-308.948-44.92c-18.46-2.871-29.54-9.948-33.228-21.235-3.684-11.287 1.030-23.492 14.156-36.621l224.018-217.861-52.926-307.708c-2.048-13.55-0.821-24.084 3.697-31.691 4.509-7.596 11.489-11.388 20.924-11.388 6.978 0 15.182 2.457 24.617 7.4l276.334 145.248 276.325-145.248c9.435-4.928 17.646-7.4 24.623-7.4 9.444 0 16.43 3.792 20.929 11.388 4.501 7.607 5.732 18.141 3.682 31.691l-52.922 307.708 223.384 217.861c13.546 13.13 18.465 25.335 14.746 36.621zM729.876 367.073l-30.157-28.93 7.394-40.618 36.921-218.484-232.015 122.483v592.654l97.853-198.17 18.45-36.921 40.633-6.156 219.098-31.998-158.177-153.86z" />
<glyph unicode="&#xe92d;" glyph-name="healthcare" d="M841.884 748c0 115.782-94.218 212-210 212-45.118 0-87.276-19.306-120-54.052-32.726 34.746-74.884 54.052-120 54.052-115.782 0-210-96.218-210-212 0-116.456 85.458-176.572 184.424-246.21 40.81-28.71 83.028-58.418 125.918-95.626l19.628-17.050 19.658 17.022c48.486 41.954 94.6 74.794 135.264 103.77 97.822 69.636 175.108 124.656 175.108 238.094zM601.884 658h-60v-60h-60v60h-60v60h60v60h60v-60h60zM987.884 685.602c-61.202 0-77-284.4-78.202-290.402-6.094-41.672-35.45-103.36-85.026-140.504l-129.942-94.346-35.976 48.046 129.942 94.318c51.474 38.592 74.934 104.488 10.602 104.488-57.616 0-165.314-66.706-197.242-93.168-38.126-31.6-60.158-78.552-60.158-128.072v-249.962h180c0 28.802 15.6 60.202 39.598 90.202 25.202 33 61.202 66.6 98.4 100.8 70.8 66.6 144.2 135 153.802 204.598 5.7 46.752 10.434 126.936 10.198 198.4-0.26 80.030-7.040 153.016-35.996 155.602zM414.684 319.6c-84.602 58.202-148.798 87.602-190.198 87.602-64.332 0-40.872-65.896 10.602-104.488l129.942-94.318-35.976-48.046-129.942 94.346c-49.58 37.144-78.936 98.832-85.030 140.504-1.202 6.002-17 290.402-78.202 290.402-33.6-3-37.2-100.8-35.398-194.4 1.202-68.4 6.6-135 9.598-159.602 9.602-69.598 83.002-138 153.802-204.598 37.2-34.2 73.198-67.8 98.4-100.8 23.998-30 39.598-61.4 39.598-90.202h180v248.764c0.004 53.002-24.878 102.928-67.196 134.836z" />
<glyph unicode="&#xe92e;" glyph-name="quotation" d="M409.752 326.34c0 93.58 91.6 134.976 91.6 243.32h-122.532c0-78.368-90.164-152.6-90.164-243.32zM643.752 326.34c0 93.58 91.6 134.976 91.6 243.32h-122.532c0-78.368-90.164-152.6-90.164-243.32z" />
<glyph unicode="&#xe92f;" glyph-name="sparkle" d="M901.845 468.523l-116.309 33.237c-106.687 30.77-189.006 113.089-219.22 217.53l-0.556 2.246-33.237 116.309c-3.408 8.141-11.31 13.756-20.523 13.756s-17.114-5.615-20.468-13.61l-0.054-0.146-33.237-116.309c-30.77-106.687-113.089-189.006-217.53-219.22l-2.246-0.556-116.309-33.237c-9.024-2.622-15.508-10.815-15.508-20.523s6.484-17.901 15.358-20.485l0.151-0.038 116.309-33.237c106.687-30.77 189.006-113.089 219.22-217.53l0.556-2.246 33.237-116.309c2.622-9.024 10.815-15.508 20.523-15.508s17.901 6.484 20.485 15.358l0.038 0.151 33.237 116.309c30.77 106.687 113.089 189.006 217.53 219.22l2.246 0.556 116.309 33.237c9.024 2.622 15.508 10.815 15.508 20.523s-6.484 17.901-15.358 20.485l-0.151 0.038z" />
<glyph unicode="&#xe930;" d="M1024 448c0-282.77-229.23-512-512-512s-512 229.23-512 512c0 282.77 229.23 512 512 512s512-229.23 512-512z" />
<glyph unicode="&#xe931;" d="M363.5 652.34c0-39.776-18.356-72.020-41-72.020s-41 32.244-41 72.020c0 39.776 18.356 72.020 41 72.020s41-32.244 41-72.020z" />
<glyph unicode="&#xe932;" d="M718.040 655.34c0-39.776-18.356-72.020-41-72.020s-41 32.244-41 72.020c0 39.776 18.356 72.020 41 72.020s41-32.244 41-72.020z" />
<glyph unicode="&#xe933;" d="M178.64 421.14h666.72c3.671-0.009 6.644-2.987 6.644-6.66 0-0.325-0.023-0.644-0.068-0.956l0.004 0.036c-6.54-45.56-54.14-281.2-339.94-296.84h-0.44c-8.64 0-283.68 3.7-339.44 296.6-0.070 0.361-0.11 0.776-0.11 1.2 0 3.656 2.964 6.62 6.62 6.62 0.003 0 0.007 0 0.010 0h-0.001z" />
<glyph unicode="&#xe934;" d="M288 205.32c36.7 15.18 261.76 100.76 451.22 0.38 1.057-0.564 1.765-1.66 1.765-2.921 0-0.997-0.442-1.89-1.141-2.495l-0.004-0.004c-28.5-24.64-224-179.32-452.62-0.64-0.777 0.613-1.271 1.555-1.271 2.612 0 1.376 0.837 2.556 2.029 3.060l0.022 0.008z" />
<glyph unicode="&#xe935;" glyph-name="plus" d="M972.797 499.2h-409.594v409.603c0 28.256-22.941 51.197-51.206 51.197-28.256 0-51.197-22.941-51.197-51.197v-409.603h-409.603c-28.256 0-51.197-22.941-51.197-51.197 0-28.266 22.941-51.206 51.197-51.206h409.603v-409.594c0-28.266 22.941-51.206 51.197-51.206 28.266 0 51.206 22.941 51.206 51.206v409.594h409.594c28.266 0 51.206 22.941 51.206 51.206 0 28.256-22.941 51.197-51.206 51.197z" />
<glyph unicode="&#xe936;" glyph-name="minus" d="M128.084 490.671c-23.164-0.524-41.742-19.426-41.742-42.667s18.578-42.143 41.694-42.666l0.049-0.001h767.834c23.164 0.524 41.742 19.426 41.742 42.667s-18.578 42.143-41.694 42.666l-0.049 0.001z" />
<glyph unicode="&#xe937;" glyph-name="team" d="M131.366 379.995c0.585 0.095 1.26 0.149 1.947 0.149 4.163 0 7.86-1.993 10.189-5.077l0.023-0.032c24.313 26.68 59.207 43.358 97.995 43.358 16.1 0 31.529-2.873 45.801-8.135l-0.918 0.296c-3.986 16.089-6.272 34.561-6.272 53.566 0 128.057 103.811 231.868 231.868 231.868s231.868-103.811 231.868-231.868c0-19.006-2.287-37.477-6.6-55.154l0.327 1.587c13.357 4.968 28.787 7.842 44.889 7.842 38.787 0 73.679-16.679 97.895-43.256l0.095-0.105c2.479 3.097 6.259 5.063 10.498 5.063 0.586 0 1.163-0.038 1.729-0.11l-0.067 0.007c1.619-0.202 3.493-0.318 5.394-0.318 25.257 0 45.756 20.37 45.964 45.578v0.020l0.001 77.438c-0.047 25.21-20.495 45.629-45.712 45.629-1.991 0-3.952-0.127-5.876-0.374l0.228 0.024c-0.567-0.085-1.221-0.133-1.886-0.133-6.216 0-11.445 4.225-12.973 9.959l-0.021 0.094c-9.581 37.315-23.512 70.075-41.571 100.068l0.932-1.669c-1.166 1.95-1.856 4.301-1.856 6.813 0 4.31 2.030 8.146 5.186 10.604l0.030 0.023c10.73 8.509 17.551 21.545 17.551 36.174 0 12.589-5.051 23.999-13.238 32.312l-54.552 54.553c-8.28 8.261-19.71 13.37-32.332 13.37-14.65 0-27.693-6.882-36.072-17.589l-0.076-0.1c-2.515-3.156-6.359-5.162-10.672-5.162-2.49 0-4.824 0.669-6.833 1.836l0.065-0.035c-28.324 17.127-61.084 31.057-95.825 40.072l-2.574 0.567c-5.828 1.652-10.026 6.926-10.026 13.179 0 0.599 0.039 1.19 0.113 1.769l-0.007-0.068c0.203 1.62 0.318 3.496 0.318 5.398 0 25.256-20.371 45.754-45.579 45.96h-77.456c-25.248-0.23-45.626-20.75-45.626-46.030 0-1.991 0.126-3.953 0.372-5.877l-0.024 0.228c0.050-0.438 0.079-0.945 0.079-1.459 0-6.226-4.189-11.474-9.903-13.078l-0.096-0.023c-37.315-9.582-70.075-23.512-100.068-41.571l1.669 0.932c-1.935-1.161-4.269-1.848-6.764-1.848-4.357 0-8.226 2.095-10.651 5.334l-0.025 0.035c-8.485 10.714-21.493 17.526-36.091 17.526-12.64 0-24.087-5.106-32.391-13.368l-54.556-54.555c-8.18-8.308-13.231-19.717-13.231-32.306 0-14.629 6.821-27.665 17.456-36.102l0.095-0.073c3.186-2.48 5.216-6.316 5.216-10.626 0-2.512-0.69-4.863-1.89-6.874l0.034 0.061c-17.127-28.324-31.058-61.084-40.072-95.826l-0.567-2.573c-1.59-5.828-6.837-10.042-13.067-10.042-0.639 0-1.268 0.044-1.884 0.13l0.071-0.008c-1.621 0.203-3.497 0.318-5.4 0.318-25.255 0-45.753-20.371-45.958-45.578v-0.020l-0.001-77.44c0.047-25.211 20.495-45.63 45.712-45.63 1.991 0 3.952 0.127 5.876 0.374l-0.228-0.024zM629.918 154.718l-23.84 8c-23.841-24.583-57.178-39.84-94.079-39.84s-70.237 15.257-94.046 39.807l-0.032 0.033-23.84-8c-34.68-11.8-59.187-44.076-59.2-82.077v-36.482c0-0.011 0-0.025 0-0.038 0-19.95 16.172-36.122 36.122-36.122 0.013 0 0.027 0 0.040 0h281.915c0.011 0 0.025 0 0.038 0 19.95 0 36.122 16.172 36.122 36.122 0 0.013 0 0.027 0 0.040v-0.002 36.48c-0.013 38.003-24.52 70.278-58.59 81.898l-0.609 0.18zM512 457.594c0.024 0 0.052 0 0.080 0 55.183 0 99.918 44.735 99.918 99.918s-44.735 99.918-99.918 99.918c-55.155 0-99.873-44.689-99.918-99.834v-0.004c0.001-55.171 44.68-99.907 99.83-99.999h0.009zM651.998 302.716c3.831 29.987 17.224 56.303 36.975 76.334l-0.015-0.015c-1.527 36.505-25.512 67.029-58.432 78.22l-0.608 0.179-23.84 8c-23.842-24.583-57.179-39.839-94.079-39.839s-70.237 15.257-94.047 39.806l-0.032 0.033-23.84-8c-33.528-11.37-57.512-41.895-59.033-78.225l-0.006-0.174c19.736-20.015 33.129-46.331 36.891-75.661l0.069-0.657h17.12c19.704 49.583 67.272 83.999 122.878 83.999s103.174-34.416 122.565-83.108l0.313-0.89zM900.794 186.558l-23.84 8c-23.842-24.583-57.179-39.839-94.079-39.839s-70.238 15.257-94.048 39.807l-0.032 0.033c-14.74-4.307-27.16-9.042-39.108-14.62l1.67 0.7c41.473-19.023 69.76-60.185 69.76-107.954 0-0.015 0-0.031 0-0.046v0.002c-0.316-3.269 0.515-38.441-0.161-40.801h202.877c0.011 0 0.025 0 0.038 0 19.95 0 36.122 16.172 36.122 36.122 0 0.013 0 0.027 0 0.040v-0.002 36.48c-0.013 38.002-24.52 70.277-58.59 81.897l-0.609 0.181zM241.124 386.555c-0.024 0-0.052 0-0.080 0-55.183 0-99.919-44.735-99.919-99.919s44.735-99.919 99.919-99.919c55.155 0 99.873 44.689 99.919 99.834v0.004c-0.002 55.171-44.68 99.906-99.829 99.999h-0.009zM512 354.716c-0.024 0-0.052 0-0.081 0-55.184 0-99.919-44.735-99.919-99.919s44.735-99.919 99.919-99.919c55.156 0 99.874 44.69 99.919 99.835v0.004c-0.002 55.171-44.68 99.906-99.83 99.999h-0.009zM782.876 186.718c0.024 0 0.052 0 0.080 0 55.183 0 99.919 44.735 99.919 99.919s-44.735 99.919-99.919 99.919c-55.183 0-99.919-44.735-99.919-99.919 0-0.028 0-0.056 0-0.085v0.004c0.073-55.11 44.728-99.765 99.831-99.838h0.007zM372.64 180.638c-10.116 4.727-22.531 9.458-35.307 13.362l-2.13 0.56c-24-24.245-57.287-39.258-94.080-39.258-36.792 0-70.078 15.012-94.066 39.244l-0.011 0.011-23.84-8c-34.68-11.8-59.187-44.076-59.2-82.077v-36.482c0-0.011 0-0.025 0-0.038 0-19.95 16.172-36.122 36.122-36.122 0.013 0 0.027 0 0.040 0h202.875c-0.477 0.723 0.107 38.799-0.16 40.8 0 0.014 0 0.031 0 0.047 0 47.768 28.286 88.929 69.021 107.649l0.737 0.303z" />
<glyph unicode="&#xe938;" glyph-name="bonus" d="M113.342 352.688c-5.666 15.57-22.882 23.596-38.452 17.93l-53.15-19.346c-11.852-4.314-19.74-15.578-19.74-28.19v-357.082c0-16.568 13.432-30 30-30h129.968c3.5 0 6.972 0.612 10.26 1.81l53.152 19.346c15.57 5.666 23.596 22.882 17.93 38.452zM1017.404 255.544c-15.25 41.896-63.122 61.728-103.532 42.888l-141.536-65.986c-0.166-6.662-0.822-13.392-2.014-20.148-12.926-73.306-83.080-122.43-156.386-109.504l-202.010 35.62c-16.316 2.876-27.212 18.438-24.334 34.754s18.436 27.212 34.754 24.334l202.010-35.62c40.79-7.192 79.688 20.044 86.88 60.834s-20.044 79.688-60.834 86.878l-96.426 17.002c-28.856 5.088-55.762 16.032-79.974 32.528-70.374 47.944-160.164 59.182-240.186 30.056l-61.728-22.468 131.13-360.272 254.146-34.926c31.106-4.276 62.246 1.17 90.054 15.744l333.852 174.97c33.708 17.67 49.152 57.55 36.134 93.316zM490.356 800h203.29l44.8 119.466c7.354 19.614-7.146 40.534-28.092 40.534h-236.708c-20.946 0-35.446-20.92-28.090-40.534zM497.588 415.382c-10.292 12.288-9.148 30.602 2.834 41.46 12.278 11.126 31.25 10.194 42.376-2.084 12.914-14.25 33.264-22.756 54.436-22.756 19.95 0 33.956 11.67 35.97 22.954 2.66 14.9-20.184 24.56-27.25 27.166-34.198 12.614-64.568 26.132-65.842 26.702-1.446 0.644-2.836 1.402-4.162 2.266-24.022 15.66-36.398 43.122-32.3 71.668 4.358 30.36 26.518 55.080 57.83 64.512 60.004 18.080 109.566-21.276 113.742-24.718 0.014-0.012 0.030-0.024 0.044-0.038 0.072-0.058 0.16-0.132 0.198-0.164l-0.008-0.010c6.54-5.502 10.704-13.74 10.704-22.956 0-16.568-13.432-30-30-30-7.352 0-14.078 2.654-19.296 7.044l-0.008-0.010 0.188-0.156c-0.278 0.226-28.296 22.578-58.26 13.556-12.742-3.838-15.256-12.18-15.746-15.588-0.332-2.312-0.504-7.796 4.24-11.814 8.056-3.522 32.844-14.196 59.436-24.004 56.956-21.008 71.206-62.334 65.55-94.004-6.052-33.9-33.312-60.28-68.652-69.164l37.202-6.56c35.51-6.26 66.458-25.976 87.14-55.514 4.56-6.514 8.5-13.33 11.808-20.384l127.234 59.318v79.29c0 70.028-19.46 138.528-56.276 198.096-27.042 43.754-62.606 81.254-104.39 110.51h-268.664c-41.784-29.256-77.348-66.756-104.39-110.51-31.064-50.262-49.77-106.882-54.858-165.414 8.616 0.686 17.278 1.046 25.978 1.046 61.72 0 121.338-17.16 173.192-49.74z" />
<glyph unicode="&#xe939;" glyph-name="send" d="M732.525 668.525l-337.923-234.618-353.451 117.833c-24.672 8.241-41.293 31.388-41.151 57.393 0.144 26.005 16.956 49.011 41.723 56.964l903.655 291.010c21.479 6.905 45.056 1.238 61.013-14.718 15.955-15.956 21.623-39.532 14.716-61.013l-291.010-903.653c-7.953-24.767-30.958-41.579-56.964-41.723-26.005-0.142-49.153 16.479-57.393 41.151l-118.404 355.164z" />
<glyph unicode="&#xe93a;" glyph-name="humanitarian" d="M952 880c-38.598 0-70-31.402-70-70v-206.13c13.418-6.242 25.992-14.894 37.064-25.964 50.776-50.766 50.778-133.084 0.008-183.854l-113.348-113.348c-11.716-11.716-30.71-11.716-42.426 0s-11.716 30.71 0 42.426l113.346 113.346c27.338 27.338 27.336 71.662-0.004 98.998-27.338 27.332-71.654 27.33-98.99-0.004l-168.292-168.3c-43.438-43.442-67.36-101.2-67.36-162.632l0.002-268.538h250c16.568 0 30 13.432 30 30v107.794c0 16.344 5.762 32.258 16.224 44.814l130.466 156.558c34.378 41.254 53.31 93.546 53.31 147.244v387.59c0 38.598-31.402 70-70 70zM414.64 367.17l-168.292 168.3c-27.334 27.334-71.652 27.336-98.99 0.004-27.34-27.336-27.342-71.66-0.004-98.998l113.346-113.346c11.716-11.716 11.716-30.71 0-42.426s-30.71-11.716-42.426 0l-113.348 113.348c-50.77 50.77-50.768 133.088 0.008 183.854 11.072 11.070 23.646 19.724 37.064 25.964l0.002 206.13c0 38.598-31.402 70-70 70s-70-31.402-70-70v-387.59c0-53.698 18.932-105.99 53.308-147.242l130.466-156.558c10.462-12.556 16.224-28.47 16.224-44.814v-107.796c0-16.568 13.432-30 30-30h250v268.54c0.002 61.43-23.92 119.188-67.358 162.63zM723.928 915.378c-58.22 58.22-152.174 59.468-211.928 3.742-59.752 55.726-153.706 54.478-211.928-3.742-59.498-59.496-59.498-156.306 0-215.802l190.714-190.714c11.716-11.716 30.71-11.716 42.426 0l190.714 190.714c59.498 59.496 59.498 156.306 0.002 215.802z" />
<glyph unicode="&#xe93b;" glyph-name="costumer" d="M518.284 810.142l32.244-84.928c0.97-2.554 3.226-4.192 5.954-4.326l90.734-4.422c2.842-0.138 5.182-1.928 6.062-4.634 0.878-2.706 0.038-5.53-2.18-7.312l-70.806-56.91c-2.128-1.71-2.99-4.364-2.274-6.998l23.832-87.66c0.746-2.746-0.232-5.524-2.534-7.196s-5.246-1.744-7.628-0.186l-76.006 49.754c-2.284 1.496-5.074 1.496-7.358 0l-76.004-49.754c-2.38-1.558-5.326-1.486-7.626 0.186-2.302 1.672-3.28 4.452-2.534 7.196l23.832 87.66c0.716 2.634-0.146 5.288-2.274 6.998l-70.806 56.91c-2.218 1.782-3.060 4.606-2.18 7.312 0.878 2.706 3.22 4.494 6.062 4.634l90.734 4.422c2.728 0.132 4.984 1.772 5.952 4.326l32.244 84.928c1.010 2.66 3.434 4.332 6.28 4.332s5.27-1.672 6.28-4.332zM342.556 836.86l56.752-51.102c6.558-5.902 16.66-5.37 22.562 1.188s5.37 16.66-1.188 22.562l-56.752 51.102c-6.558 5.902-16.66 5.37-22.562-1.188s-5.372-16.66 1.188-22.562zM660.076 860.61l-57.084-51.4c-6.558-5.902-7.090-16.004-1.188-22.562s16.004-7.090 22.562-1.188l57.084 51.4c6.558 5.902 7.090 16.004 1.188 22.562-5.904 6.558-16.004 7.090-22.562 1.188zM528.004 873.908c0-8.836-7.164-16-16-16s-16 7.164-16 16v58.718c0 8.836 7.164 16 16 16s16-7.164 16-16zM512.004 494.232c61.998 0 112.258-50.26 112.258-112.256 0-61.998-50.26-112.258-112.258-112.258s-112.256 50.26-112.256 112.258 50.258 112.256 112.256 112.256zM732.748 51.584c-11.92 111.384-106.198 198.134-220.744 198.134-114.548 0-208.826-86.75-220.746-198.136v-44.876c0-32.68 26.654-59.334 59.334-59.334h322.822c32.68 0 59.334 26.654 59.334 59.334zM847.5 412.712c46.382 0 83.982-37.602 83.982-83.982 0-46.382-37.6-83.982-83.982-83.982s-83.982 37.6-83.982 83.982c-0.002 46.38 37.598 83.982 83.982 83.982zM176.508 412.712c46.382 0 83.982-37.602 83.982-83.982 0-46.382-37.6-83.982-83.982-83.982s-83.982 37.6-83.982 83.982c0 46.38 37.6 83.982 83.982 83.982zM176.506 222.314c48.944 0 92.942-21.168 123.342-54.848-21.454-32.484-35.68-70.286-40.264-111.258h-205.508c-12.454 0-23.17 5.414-30.56 15.438s-9.392 21.862-5.708 33.76c20.97 67.718 84.092 116.908 158.698 116.908zM847.498 222.314c74.61 0 137.73-49.19 158.698-116.908 3.684-11.898 1.682-23.734-5.708-33.76s-18.104-15.438-30.56-15.438h-205.508c-4.584 40.972-18.812 78.772-40.264 111.258 30.402 33.68 74.4 54.848 123.342 54.848zM163.898 810.142l32.244-84.928c0.97-2.554 3.226-4.192 5.954-4.326l90.734-4.422c2.842-0.138 5.182-1.928 6.062-4.634 0.878-2.706 0.038-5.53-2.18-7.312l-70.806-56.91c-2.128-1.71-2.99-4.364-2.274-6.998l23.832-87.66c0.746-2.746-0.232-5.524-2.534-7.196s-5.246-1.744-7.628-0.186l-76.006 49.754c-2.284 1.496-5.074 1.496-7.358 0l-76.004-49.754c-2.38-1.558-5.326-1.486-7.626 0.186-2.302 1.672-3.28 4.452-2.534 7.196l23.832 87.66c0.716 2.634-0.146 5.288-2.274 6.998l-70.806 56.912c-2.218 1.782-3.060 4.606-2.18 7.312 0.878 2.706 3.22 4.494 6.062 4.634l90.734 4.422c2.728 0.132 4.984 1.772 5.952 4.326l32.246 84.926c1.010 2.66 3.434 4.332 6.28 4.332s5.268-1.672 6.278-4.332zM871.61 810.142l32.244-84.928c0.97-2.554 3.226-4.192 5.954-4.326l90.734-4.422c2.842-0.138 5.182-1.928 6.062-4.634 0.878-2.706 0.038-5.53-2.18-7.312l-70.806-56.91c-2.128-1.71-2.99-4.364-2.274-6.998l23.832-87.66c0.746-2.746-0.232-5.524-2.532-7.196-2.302-1.672-5.246-1.744-7.628-0.186l-76.006 49.754c-2.284 1.496-5.074 1.496-7.358 0l-76.004-49.754c-2.38-1.558-5.326-1.486-7.628 0.186s-3.28 4.452-2.534 7.196l23.832 87.66c0.716 2.634-0.146 5.288-2.274 6.998l-70.806 56.91c-2.218 1.782-3.060 4.606-2.18 7.312 0.878 2.706 3.22 4.494 6.062 4.634l90.734 4.422c2.728 0.132 4.984 1.772 5.952 4.326l32.244 84.928c1.010 2.66 3.434 4.332 6.28 4.332s5.27-1.672 6.28-4.332z" />
<glyph unicode="&#xe93c;" glyph-name="trophy" d="M722.68 834.178l-28.314-48.53c-1.386-2.341-2.204-5.16-2.204-8.17 0-8.97 7.272-16.242 16.242-16.242 1.412 0 2.781 0.18 4.087 0.519l-0.113-0.025 54.672 13.758 37.632-41.988c2.987-3.324 7.3-5.406 12.099-5.406 8.594 0 15.629 6.674 16.206 15.121l0.003 0.050 3.666 56.062 51.558 22.616c5.763 2.576 9.706 8.258 9.706 14.861 0 6.8-4.182 12.623-10.113 15.038l-0.109 0.039-52.394 20.918-5.734 55.938c-0.873 8.23-7.777 14.587-16.166 14.587-4.997 0-9.468-2.256-12.449-5.804l-0.020-0.025-36.040-43.16-55.136 11.954c-1.033 0.234-2.22 0.368-3.438 0.368-8.964 0-16.23-7.266-16.23-16.23 0-3.216 0.935-6.214 2.549-8.735l-0.039 0.065zM1000.648 426.276c-1.887 6.217-7.251 10.791-13.775 11.49l-0.071 0.006-55.984 5.914-20.498 52.314c-2.438 6.084-8.286 10.303-15.119 10.303-6.561 0-12.214-3.89-14.778-9.49l-0.042-0.101-23.124-51.416-56.258-3.472c-8.538-0.534-15.26-7.589-15.26-16.214 0-4.771 2.057-9.062 5.332-12.034l0.014-0.012 41.698-37.652-14.244-54.462c-0.337-1.234-0.53-2.651-0.53-4.113 0-8.962 7.266-16.228 16.228-16.228 2.983 0 5.777 0.805 8.179 2.209l-0.077-0.042 48.914 28.114 47.432-30.2c2.469-1.592 5.485-2.538 8.721-2.538 8.977 0 16.254 7.277 16.254 16.254 0 1.173-0.124 2.318-0.361 3.421l0.019-0.107-11.5 55.042 43.58 35.824c3.633 2.996 5.93 7.497 5.93 12.536 0 1.66-0.249 3.261-0.713 4.769l0.030-0.115zM135.8 821.942l51.544-22.614 3.666-56.064c0.58-8.497 7.615-15.17 16.208-15.17 4.801 0 9.116 2.083 12.090 5.395l0.013 0.015 37.628 41.984 54.672-13.76c1.189-0.312 2.554-0.49 3.962-0.49 8.971 0 16.244 7.273 16.244 16.244 0 3.011-0.819 5.831-2.247 8.248l0.041-0.076-28.302 48.524 30.094 47.584c1.573 2.456 2.507 5.452 2.507 8.667 0 8.965-7.267 16.232-16.232 16.232-1.222 0-2.413-0.135-3.558-0.391l0.108 0.020-55.134-11.954-36.038 43.164c-3.002 3.573-7.472 5.829-12.47 5.829-8.389 0-15.294-6.357-16.16-14.516l-0.006-0.071-5.736-55.942-52.398-20.92c-6.035-2.457-10.212-8.277-10.212-15.073 0-6.606 3.947-12.291 9.612-14.824l0.103-0.041zM223.010 441.824l-56.268 3.47-23.126 51.416c-2.604 5.702-8.257 9.593-14.819 9.593-6.833 0-12.68-4.219-15.079-10.194l-0.039-0.109-20.498-52.314-55.982-5.914c-8.203-0.888-14.533-7.775-14.533-16.141 0-5.041 2.299-9.546 5.905-12.523l0.028-0.022 43.578-35.828-11.5-55.042c-0.219-1.001-0.345-2.151-0.345-3.331 0-8.972 7.274-16.246 16.246-16.246 3.242 0 6.262 0.949 8.797 2.586l-0.064-0.039 47.432 30.2 48.91-28.112c2.324-1.362 5.118-2.166 8.1-2.166 8.962 0 16.228 7.266 16.228 16.228 0 1.46-0.193 2.874-0.554 4.22l0.026-0.114-14.234 54.47 41.7 37.654c3.286 2.984 5.341 7.273 5.341 12.042 0 8.622-6.717 15.676-15.204 16.213l-0.047 0.002zM649.472 223.828l-137.472 83.412-137.47-83.412c-2.16-1.336-4.698-2.657-7.332-3.798l-0.394-0.152c-24.448-75.268-38.626-161.885-38.804-251.789v-0.089c0-13.255 10.745-24 24-24v0h0.15l320 2c13.19 0.085 23.85 10.797 23.85 24 0 0 0 0 0 0v0c-0.189 89.338-14.433 175.283-40.635 255.832l1.655-5.884c-2.963 1.278-5.442 2.575-7.813 4.031l0.265-0.151zM676.54 455l132.758 114.68c7.806 6.764 12.715 16.693 12.715 27.768 0 19.178-14.718 34.919-33.476 36.542l-0.137 0.010-174.698 14.642-67.902 161.844c-5.689 13.32-18.677 22.485-33.806 22.485s-28.117-9.165-33.715-22.246l-0.091-0.239-67.896-161.848-174.692-14.638c-18.889-1.639-33.6-17.377-33.6-36.55 0-11.070 4.904-20.995 12.659-27.721l0.046-0.039 132.756-114.69-40.084-170.922c-0.618-2.52-0.973-5.413-0.973-8.389 0-20.249 16.415-36.664 36.664-36.664 7.028 0 13.594 1.977 19.172 5.406l-0.159-0.091 149.92 90.972 149.92-90.966c5.418-3.336 11.983-5.312 19.009-5.312 20.251 0 36.668 16.417 36.668 36.668 0 2.973-0.354 5.864-1.022 8.632l0.051-0.25zM378.448 376.912l19.062 81.278c0.403 1.647 0.635 3.538 0.635 5.482 0 7.243-3.208 13.736-8.281 18.136l-0.030 0.025-86.654 74.852 169.512-36.726zM536 376.896v79.052l86.768-131.7zM536 565.756v144.024l39.068-93.126c3.465-8.108 11.041-13.848 20.036-14.626l0.090-0.006 78-6.538z" />
<glyph unicode="&#xe93d;" glyph-name="salad" d="M126.064 584.688c33.551-51.592 67.097-96.185 103.355-138.379l-1.419 1.691h27.664c-4.025 22.834-9.169 42.649-15.688 61.829l0.856-2.901c-25.693 73.76-68.202 136.131-123.116 184.822l-0.452 0.394 21.472 23.712c59.366-52.685 104.929-119.627 131.437-195.512l0.995-3.272c4.224-12.592 7.696-25.504 10.784-38.544 1.44 2.624 2.928 5.216 4.192 8 36.016 80 18.512 207.392-58.032 251.584-20.377 10.736-44.53 17.037-70.155 17.037-17.851 0-34.988-3.058-50.916-8.679l1.071 0.329c-18.354-4.762-33.34-16.604-42.161-32.364l-0.175-0.34c-8.496-21.456 14.832-59.12 60.288-129.408zM495.024 603.536c-1.341 10.486-3.862 19.999-7.463 28.961l0.279-0.785c-24.944 63.296-97.744 98.576-141.36 85.584-14.63-5.031-26.704-14.349-35.048-26.439l-0.152-0.233c15.66-33.298 24.801-72.319 24.801-113.475 0-32.429-5.675-63.533-16.086-92.372l0.598 1.895c0.912 1.12 2 2.112 2.896 3.2 32.71 41.97 54.566 93.883 60.53 150.532l0.11 1.292 31.808-3.488c-6.677-64.215-30.97-121.741-67.901-168.893l0.541 0.717c-6.096-7.712-12.8-14.96-19.648-22.080h73.792l1.328 0.624c-2.552 9.524-4.018 20.46-4.018 31.737 0 58.842 39.909 108.362 94.135 122.971l0.891 0.204zM787.2 448h160.24c-10.189 14.628-24.139 25.989-40.462 32.798l-0.61 0.226c-9.959 3.477-21.455 5.671-33.405 6.075l-0.195 0.005c-14.688 1.088-31.344 2.336-39.056 17.744-8 16.16 2.928 29.776 11.696 40.736 8.633 9.356 15.196 20.759 18.876 33.39l0.148 0.594c7.904 34.48 8 92.352-24.256 110.496-8.288 4.32-18.1 6.853-28.504 6.853-7.291 0-14.29-1.244-20.799-3.532l0.439 0.135c-24.439-7.495-44.377-23.473-56.82-44.422l-0.252-0.458c-12.464-24.096-5.184-50.816 1.856-76.624s14.4-52.944-4.992-71.568c-19.696-18.96-48.464-11.2-76.32-3.6 0.788-5.18 1.238-11.157 1.238-17.239 0-11.245-1.538-22.13-4.416-32.457l0.202 0.849h102.864c4 22.656 8.512 45.344 13.744 67.664 8.96 38.144 19.872 76.32 32.432 113.456l30.304-10.24c-12.224-36.176-22.848-73.376-31.568-110.544-4.672-19.904-8.72-40.128-12.384-60.336zM618.464 448c2.777 7.57 4.636 16.326 5.187 25.436l0.013 0.26-26.608-8.864-10.112 30.4 33.312 11.104c-10.384 35.306-39.561 61.801-75.679 68.14l-0.577 0.084v-30.56h-32v30.56c-31.613-5.545-57.518-25.889-70.663-53.483l-0.249-0.581 27.968-9.328-10.112-30.4-26.448 8.832c-0.31-2.872-0.49-6.211-0.496-9.591v-0.009c0-0.055 0-0.121 0-0.186 0-11.41 2.029-22.346 5.746-32.467l-0.21 0.653zM512 512h32v-32h-32zM186.448 448q-26.848 32.704-51.696 67.456c-16.365-5.499-30.339-11.742-43.588-19.129l1.3 0.665c-11.049-4.886-19.813-13.263-25.067-23.709l-0.133-0.291c-2.088-4.92-3.301-10.643-3.301-16.649 0-2.952 0.293-5.835 0.852-8.622l-0.047 0.279zM64.288 416c9.12-231.49 198.856-415.731 431.686-416h32.026c232.856 0.269 422.592 184.51 431.686 415.173l0.026 0.827zM329.040 81.6c-76.562 37.51-138.711 94.322-181.641 164.208l-1.079 1.888 27.36 16.608c40.777-66.498 98.353-119.136 166.913-152.852l2.367-1.052zM400 64h-32v32h32zM752 832v32h-64c-70.692 0-128-57.308-128-128v0-32h64c70.692 0 128 57.308 128 128v0zM480 832c0-17.673-14.327-32-32-32s-32 14.327-32 32c0 17.673 14.327 32 32 32s32-14.327 32-32zM272 880c0-17.673-14.327-32-32-32s-32 14.327-32 32c0 17.673 14.327 32 32 32s32-14.327 32-32z" />
<glyph unicode="&#xe93e;" glyph-name="giftbox" d="M957.218 760.548h-74.538c9.832 15.56 16.32 33.026 18.17 51.498 5.91 59.034-25.18 111.954-78.11 135.416-48.652 21.566-103.326 12.75-142.696-22.958l-94.12-85.3c-18.33 20.048-44.68 32.648-73.924 32.648-29.296 0-55.688-12.64-74.022-32.75l-94.24 85.412c-39.434 35.708-94.086 44.49-142.716 22.936-52.916-23.464-84.012-76.402-78.084-135.434 1.854-18.458 8.338-35.916 18.168-51.468h-74.324c-36.884 0-66.782-29.9-66.782-66.782v-100.174c0-18.44 14.95-33.392 33.392-33.392h957.218c18.44 0 33.392 14.95 33.392 33.392v100.174c-0.002 36.882-29.9 66.782-66.784 66.782zM411.826 771.678v-11.13h-157.086c-41.504 0-74.168 38.692-63.802 81.904 4.566 19.030 18.302 35.252 36.068 43.464 24.396 11.276 51.42 7.656 71.91-10.89l112.938-102.364c-0.006-0.33-0.028-0.654-0.028-0.984zM834.588 820.912c-2.488-34.706-33.838-60.368-68.632-60.368h-153.782v11.13c0 0.394-0.024 0.784-0.028 1.178 25.584 23.192 81.086 73.496 111.188 100.782 17.108 15.506 41.046 22.744 63.174 16.144 31.754-9.472 50.402-36.476 48.080-68.866zM66.782 493.418v-489.74c0-36.884 29.898-66.782 66.782-66.782h311.652v556.522h-378.434zM578.782 493.418v-556.522h311.652c36.884 0 66.782 29.898 66.782 66.782v489.74h-378.434z" />
<glyph unicode="&#xe93f;" glyph-name="clipboard" d="M358.4 157.867c0-18.851-15.282-34.133-34.133-34.133s-34.133 15.282-34.133 34.133c0 18.851 15.282 34.133 34.133 34.133s34.133-15.282 34.133-34.133zM733.867 669.867c0-18.851-15.282-34.133-34.133-34.133s-34.133 15.282-34.133 34.133c0 18.851 15.282 34.133 34.133 34.133s34.133-15.282 34.133-34.133zM699.733 874.667h-51.2c-0.001 0-0.003 0-0.004 0-7.496 0-13.864 4.833-16.157 11.553l-0.036 0.12-9.284 27.853c-2.327 6.836-8.688 11.668-16.178 11.674h-189.748c-7.491-0.006-13.852-4.837-16.144-11.553l-0.036-0.12-9.284-27.853c-2.328-6.84-8.696-11.674-16.192-11.674-0.001 0-0.003 0-0.004 0h-51.2v-68.267h375.467zM512 857.6c-9.426 0-17.067 7.641-17.067 17.067s7.641 17.067 17.067 17.067c9.426 0 17.067-7.641 17.067-17.067v0c0-9.426-7.641-17.067-17.067-17.067v0zM853.333 857.6h-119.467v-34.133h85.333c18.851 0 34.133-15.282 34.133-34.133v0-750.933c0-18.851-15.282-34.133-34.133-34.133v0h-614.4c-18.851 0-34.133 15.282-34.133 34.133v0 750.933c0 18.851 15.282 34.133 34.133 34.133v0h85.333v34.133h-119.467c-18.851 0-34.133-15.282-34.133-34.133v0-819.2c0-18.851 15.282-34.133 34.133-34.133v0h682.667c18.851 0 34.133 15.282 34.133 34.133v0 819.2c0 18.851-15.282 34.133-34.133 34.133v0zM204.8 38.4h614.4v750.933h-90.078c-5.966-10.243-16.881-17.028-29.383-17.067h-375.473c-12.508 0.039-23.423 6.823-29.302 16.905l-0.087 0.162h-90.078zM558.199 186.999c3.215-3.108 5.21-7.459 5.21-12.276 0-9.426-7.641-17.067-17.067-17.067-4.817 0-9.168 1.996-12.271 5.205l-22.072 22.072-22.067-22.067c-3.066-2.964-7.248-4.791-11.856-4.791-9.426 0-17.067 7.641-17.067 17.067 0 4.609 1.827 8.79 4.795 11.861l22.062 22.062-22.067 22.067c-2.964 3.066-4.791 7.248-4.791 11.856 0 9.426 7.641 17.067 17.067 17.067 4.609 0 8.79-1.827 11.861-4.795l22.062-22.062 22.067 22.067c3.066 2.964 7.248 4.791 11.856 4.791 9.426 0 17.067-7.641 17.067-17.067 0-4.609-1.827-8.79-4.795-11.861l-22.062-22.062zM745.933 152.866c3.215-3.108 5.21-7.459 5.21-12.276 0-9.426-7.641-17.067-17.067-17.067-4.817 0-9.168 1.996-12.271 5.205l-22.072 22.072-22.067-22.067c-3.066-2.964-7.248-4.791-11.856-4.791-9.426 0-17.067 7.641-17.067 17.067 0 4.609 1.827 8.79 4.795 11.861l22.062 22.062-22.067 22.067c-2.964 3.066-4.791 7.248-4.791 11.856 0 9.426 7.641 17.067 17.067 17.067 4.609 0 8.79-1.827 11.861-4.795l22.062-22.062 22.067 22.067c3.066 2.964 7.248 4.791 11.856 4.791 9.426 0 17.067-7.641 17.067-17.067 0-4.609-1.827-8.79-4.795-11.861l-22.062-22.062zM699.733 738.133c37.703 0 68.267-30.564 68.267-68.267s-30.564-68.267-68.267-68.267c-37.703 0-68.267 30.564-68.267 68.267v0c0 37.703 30.564 68.267 68.267 68.267v0zM448.734 538.334c-2.964 3.066-4.791 7.248-4.791 11.856 0 9.426 7.641 17.067 17.067 17.067 4.609 0 8.79-1.827 11.861-4.795l22.062-22.062 22.067 22.067c3.066 2.964 7.248 4.791 11.856 4.791 9.426 0 17.067-7.641 17.067-17.067 0-4.609-1.827-8.79-4.795-11.861l-22.062-22.062 22.067-22.067c3.215-3.108 5.21-7.459 5.21-12.276 0-9.426-7.641-17.067-17.067-17.067-4.817 0-9.168 1.996-12.271 5.205l-22.072 22.072-22.067-22.067c-3.066-2.964-7.248-4.791-11.856-4.791-9.426 0-17.067 7.641-17.067 17.067 0 4.609 1.827 8.79 4.795 11.861l22.062 22.062zM278.067 640.734c-2.964 3.066-4.791 7.248-4.791 11.856 0 9.426 7.641 17.067 17.067 17.067 4.609 0 8.79-1.827 11.861-4.795l22.062-22.062 22.067 22.067c3.066 2.964 7.248 4.791 11.856 4.791 9.426 0 17.067-7.641 17.067-17.067 0-4.609-1.827-8.79-4.795-11.861l-22.062-22.062 22.067-22.067c3.215-3.108 5.21-7.459 5.21-12.276 0-9.426-7.641-17.067-17.067-17.067-4.817 0-9.168 1.996-12.271 5.205l-22.072 22.072-22.067-22.067c-3.066-2.964-7.248-4.791-11.856-4.791-9.426 0-17.067 7.641-17.067 17.067 0 4.609 1.827 8.79 4.795 11.861l22.062 22.062zM307.2 223.71v53.623c0.058 56.531 45.869 102.342 102.394 102.4h204.806c37.703 0 68.267 30.564 68.267 68.267v0 61.201l-22.067-22.067c-3.066-2.964-7.248-4.791-11.856-4.791-9.426 0-17.067 7.641-17.067 17.067 0 4.609 1.827 8.79 4.795 11.861l51.195 51.195c3.088 3.087 7.354 4.997 12.066 4.997s8.978-1.91 12.066-4.997l51.2-51.2c3.215-3.108 5.21-7.459 5.21-12.276 0-9.426-7.641-17.067-17.067-17.067-4.817 0-9.168 1.996-12.271 5.205l-22.072 22.072v-61.201c-0.058-56.531-45.869-102.342-102.394-102.4h-204.806c-37.703 0-68.267-30.564-68.267-68.267v0-53.623c29.678-7.85 51.2-34.461 51.2-66.099 0-37.703-30.564-68.267-68.267-68.267s-68.267 30.564-68.267 68.267c0 31.638 21.522 58.249 50.724 65.992l0.476 0.107z" />
<glyph unicode="&#xe940;" glyph-name="open-mail" d="M1006 535.2c0 5.8-2.8 11.4-7.2 15l-474.6 387.4c-7.2 5.8-17.4 5.8-24.4 0l-474.6-387.4c-4.4-3.4-7.2-9.2-7.2-15v-562c0.2-10.6 9-19.2 19.4-19.2h949.2c10.6 0 19.4 8.8 19.4 19.4zM967.2 14.2l-319.6 261 319.6 223zM512 897.6l442.4-361.2-338-235.8-92.2 75.2c-7.2 5.8-17.4 5.8-24.4 0l-92.2-75.2-338 235.8zM56.8 498l319.6-223-319.6-260.8zM91.8-7.2l420.2 343 420.2-343z" />
<glyph unicode="&#xe941;" glyph-name="user" d="M504.702 466.735c67.765 0 126.437 24.305 174.39 72.258 47.937 47.945 72.25 106.609 72.25 174.382 0 67.75-24.305 126.422-72.258 174.382-47.953 47.937-106.625 72.242-174.382 72.242-67.773 0-126.437-24.305-174.382-72.25s-72.258-106.617-72.258-174.375c0-67.773 24.312-126.445 72.258-174.39 47.961-47.937 106.633-72.25 174.382-72.25zM372.757 845.321c36.789 36.789 79.945 54.672 131.945 54.672 51.992 0 95.156-17.883 131.953-54.672 36.789-36.797 54.68-79.961 54.68-131.945 0-52-17.891-95.156-54.68-131.953-36.797-36.797-79.961-54.68-131.953-54.68-51.984 0-95.14 17.891-131.945 54.68-36.797 36.789-54.687 79.953-54.687 131.953 0 51.984 17.891 95.148 54.687 131.945zM936.256 172.595c-1.383 19.953-4.18 41.719-8.297 64.703-4.156 23.156-9.508 45.047-15.914 65.055-6.625 20.68-15.617 41.101-26.75 60.672-11.539 20.312-25.102 38-40.32 52.555-15.914 15.227-35.398 27.469-57.93 36.398-22.453 8.883-47.336 13.383-73.953 13.383-10.453 0-20.562-4.289-40.086-17-12.016-7.836-26.070-16.898-41.758-26.922-13.414-8.547-31.586-16.555-54.031-23.805-21.898-7.086-44.133-10.68-66.086-10.68-21.937 0-44.172 3.594-66.086 10.68-22.422 7.242-40.601 15.25-53.992 23.797-15.539 9.93-29.602 18.992-41.797 26.937-19.508 12.711-29.617 17-40.070 17-26.625 0-51.5-4.508-73.945-13.398-22.516-8.914-42.008-21.156-57.937-36.398-15.219-14.562-28.781-32.242-40.312-52.547-11.117-19.57-20.117-39.984-26.742-60.68-6.398-20.008-11.75-41.891-15.906-65.047-4.125-22.953-6.914-44.726-8.297-64.726-1.359-19.555-2.047-39.906-2.047-60.469 0-53.453 16.992-96.726 50.5-128.64 33.094-31.492 76.875-47.461 130.133-47.461h493.062c53.242 0 97.023 15.969 130.125 47.461 33.516 31.891 50.508 75.18 50.508 128.648-0.008 20.633-0.703 40.984-2.070 60.484zM846.444 26.939c-21.867-20.812-50.898-30.93-88.758-30.93h-493.054c-37.867 0-66.898 10.117-88.758 30.922-21.445 20.414-31.867 48.281-31.867 85.172 0 19.187 0.633 38.133 1.898 56.32 1.234 17.844 3.758 37.445 7.5 58.273 3.695 20.57 8.398 39.875 13.992 57.351 5.367 16.758 12.687 33.351 21.766 49.336 8.664 15.234 18.633 28.305 29.633 38.836 10.289 9.852 23.258 17.914 38.539 23.961 14.133 5.594 30.016 8.656 47.258 9.117 2.102-1.117 5.844-3.25 11.906-7.203 12.336-8.039 26.555-17.211 42.273-27.25 17.719-11.297 40.547-21.5 67.82-30.305 27.883-9.016 56.32-13.594 84.547-13.594s56.672 4.578 84.539 13.586c27.297 8.82 50.117 19.016 67.859 30.328 16.086 10.281 29.906 19.187 42.242 27.234 6.062 3.945 9.805 6.086 11.906 7.203 17.25-0.461 33.133-3.523 47.273-9.117 15.273-6.047 28.242-14.117 38.531-23.961 11-10.523 20.969-23.594 29.633-38.844 9.086-15.977 16.414-32.578 21.773-49.32 5.602-17.5 10.312-36.797 14-57.351 3.734-20.867 6.266-40.476 7.5-58.289v-0.016c1.273-18.117 1.914-37.055 1.922-56.297-0.008-36.898-10.43-64.758-31.875-85.164z" />
<glyph unicode="&#xe942;" glyph-name="direct-download" d="M903.636 461.251c27.098 129.671-86.979 246.544-213.285 226.158-147.348 242.117-515.517 131.604-515.517-144.238-228.156-122.034-140.051-468.114 117.029-468.114h469.285c121.127 0 219.429 98.301 219.429 219.429 0.003 65.243-28.084 125.507-76.94 166.766zM659.921 338.072l-117.029-117.029c-16.533-17.127-45.351-17.244-62.028 0l-117.029 117.029c-17.256 16.972-17.256 44.772 0 62.028 17.27 16.972 44.772 16.972 62.028 0l42.127-42.127v186.658c0 24.286 19.614 43.886 43.886 43.886 24.286 0 43.886-19.599 43.886-43.886v-186.658l42.127 42.127c17.27 16.972 44.772 16.972 62.028 0 17.259-17.259 17.259-45.059 0.003-62.028z" />
<glyph unicode="&#xe943;" glyph-name="download-pdf" d="M894.114 543.418c11.046 0 20 8.956 20 20s-8.954 20-20 20h-64.846c-11.046 0-20-8.956-20-20v-160.002c0-11.046 8.954-20 20-20s20 8.956 20 20v61.516h39.694c11.046 0 20 8.956 20 20s-8.954 20-20 20h-39.694v38.484h44.846zM696.344 583.42h-45.314c-11.054 0-20.020-8.98-20-20.038v-157.366c0-14.538 9.78-22.6 20.324-22.6h0.076c1.37 0.006 33.68 0.13 46.59 0.358 48.056 0.838 82.934 42.744 82.934 99.644 0 59.814-34.004 100.002-84.61 100.002zM697.318 423.768c-5.98-0.104-16.536-0.188-26.034-0.248-0.2 62.622-0.082 40.654-0.22 119.9h25.278c32.892 0 44.612-30.994 44.612-60 0-29.312-13.492-59.126-43.636-59.652zM535.506 583.42h-44.55c-11.046 0-20-8.974-20-20v-160.002c0-11.046 8.954-20 20-20s20 8.956 20 20v49.608c8.986 0.046 18.882 0.088 24.55 0.088 36.41 0 66.034 29.226 66.034 65.152s-29.622 65.154-66.034 65.154zM535.506 493.116c-5.65 0-15.416-0.042-24.35-0.088-0.13 26.224-0.046 16.016-0.14 50.39h24.49c14.112 0 26.036-11.518 26.036-25.15 0-13.634-11.922-25.152-26.036-25.152zM961.252 678.982h-111.486v251.018c0 16.568-13.432 30-29.998 30h-470.506c-8.2 0-15.816-3.392-21.212-8.786l-190.874-190.86c-5.776-5.778-8.788-13.542-8.788-21.214v-295.010h-10.362c-16.568 0-29.998-13.432-29.998-30v-207.946h-57.994c-25.2 0-39.172-29.322-23.3-48.896l170.444-210.19c12.010-14.808 34.612-14.78 46.6 0l39.65 48.896h556.338c16.568 0 29.998 13.432 29.998 30v260.898h111.486c34.6 0 62.748 28.15 62.748 62.75v266.588c0.002 34.602-28.148 62.752-62.746 62.752zM319.264 857.578v-88.438h-88.444c9.376 9.376 79.078 79.072 88.444 88.438zM92.984 146.182h25.044c16.568 0 29.998 13.432 29.998 30v207.946h104.902v-207.946c0-16.568 13.432-30 29.998-30h25.044l-81.984-101.102c-0.002-0.004-0.006-0.006-0.008-0.010l-25.502-31.448zM789.768 55.994h-477.684l82.138 101.292c15.87 19.57 1.906 48.896-23.3 48.896h-57.996v207.946c0 16.568-13.432 30-29.998 30h-94.54v265.010h160.874c16.568 0 29.998 13.432 29.998 30v160.862h410.506v-221.018h-366.182c-34.6 0-62.75-28.15-62.75-62.752v-266.588c0-34.6 28.15-62.75 62.75-62.75h366.184zM964.002 349.642c0-1.516-1.234-2.75-2.75-2.75-14.092 0-522.194 0-537.668 0-1.518 0-2.752 1.234-2.752 2.75v266.588c0 1.518 1.234 2.752 2.752 2.752h537.668c1.516 0 2.75-1.234 2.75-2.752z" />
<glyph unicode="&#xe944;" glyph-name="heart" d="M512-7.031c-14.578 0-28.633 5.281-39.586 14.875-41.367 36.172-81.25 70.164-116.438 100.148l-0.18 0.156c-103.164 87.914-192.25 163.836-254.234 238.625-69.289 83.609-101.563 162.883-101.563 249.484 0 84.141 28.852 161.766 81.234 218.586 53.008 57.492 125.742 89.156 204.828 89.156 59.109 0 113.242-18.688 160.891-55.539 24.047-18.602 45.844-41.367 65.047-67.922 19.211 26.555 41 49.32 65.055 67.922 47.648 36.852 101.781 55.539 160.891 55.539 79.078 0 151.82-31.664 204.828-89.156 52.383-56.82 81.227-134.445 81.227-218.586 0-86.602-32.266-165.875-101.555-249.477-61.984-74.797-151.063-150.711-254.211-238.617-35.25-30.031-75.195-64.078-116.656-100.336-10.945-9.578-25.008-14.859-39.578-14.859zM286.063 844.016c-62.133 0-119.211-24.797-160.734-69.828-42.141-45.711-65.352-108.898-65.352-177.93 0-72.836 27.070-137.977 87.766-211.211 58.664-70.789 145.922-145.148 246.953-231.25l0.188-0.156c35.32-30.102 75.359-64.227 117.031-100.664 41.922 36.508 82.023 70.688 117.414 100.836 101.023 86.102 188.273 160.445 246.938 231.234 60.688 73.234 87.758 138.375 87.758 211.211 0 69.031-23.211 132.219-65.352 177.93-41.516 45.031-98.602 69.828-160.727 69.828-45.516 0-87.305-14.469-124.203-43-32.883-25.438-55.789-57.594-69.219-80.094-6.906-11.57-19.063-18.477-32.523-18.477s-25.617 6.906-32.523 18.477c-13.422 22.5-36.328 54.656-69.219 80.094-36.898 28.531-78.688 43-124.195 43z" />
<glyph unicode="&#xe945;" glyph-name="eye" d="M512 169.387c-0.267-0.001-0.582-0.001-0.898-0.001-120.532 0-231.095 42.681-317.401 113.754l0.859-0.686-131.84 107.947c-16.777 13.719-27.402 34.419-27.402 57.6s10.624 43.881 27.269 57.495l0.132 0.105 131.84 107.947c85.791 70.314 196.639 112.931 317.44 112.931s231.649-42.617 318.328-113.637l-0.888 0.706 131.84-107.947c16.777-13.719 27.402-34.419 27.402-57.6s-10.624-43.881-27.269-57.495l-0.132-0.105-131.84-107.947c-85.34-70.384-195.804-113.068-316.238-113.068-0.423 0-0.845 0.001-1.268 0.002h0.065zM512 661.333c-0.699 0.004-1.526 0.006-2.353 0.006-104.419 0-200.266-36.703-275.344-97.911l0.791 0.625-131.84-107.947c-2.292-1.968-3.734-4.869-3.734-8.107s1.443-6.139 3.72-8.095l0.014-0.012 131.84-107.947c74.892-61.59 171.752-98.932 277.333-98.932s202.442 37.342 278.094 99.539l-0.761-0.607 131.84 107.947c2.292 1.968 3.734 4.869 3.734 8.107s-1.443 6.139-3.72 8.095l-0.014 0.012-132.693 107.947c-74.392 60.586-170.337 97.285-274.853 97.285-0.722 0-1.443-0.002-2.164-0.005h0.111zM512 181.333c-147.276 0-266.667 119.391-266.667 266.667s119.391 266.667 266.667 266.667c147.276 0 266.667-119.391 266.667-266.667v0c0-147.276-119.391-266.667-266.667-266.667v0zM512 650.667c-111.93 0-202.667-90.737-202.667-202.667s90.737-202.667 202.667-202.667c111.93 0 202.667 90.737 202.667 202.667v0c0 111.93-90.737 202.667-202.667 202.667v0zM640 448c0-0.017 0-0.038 0-0.058 0-70.692-57.308-128-128-128s-128 57.308-128 128c0 70.692 57.308 128 128 128 12.148 0 23.901-1.692 35.036-4.854l-0.902 0.219c-7.988-10.415-12.8-23.631-12.8-37.971 0-0.001 0-0.002 0-0.003v0c0-35.346 28.654-64 64-64v0c0.001 0 0.002 0 0.002 0 14.34 0 27.556 4.812 38.121 12.91l-0.15-0.11c2.96-10.226 4.673-21.976 4.693-34.122v-0.012z" />
<glyph unicode="&#xe946;" glyph-name="quote" d="M200.533 204.8c-42.667 46.933-68.267 98.133-68.267 183.467 0 149.333 106.667 281.6 256 349.867l38.4-55.467c-140.8-76.8-170.667-174.933-179.2-238.933 21.333 12.8 51.2 17.067 81.067 12.8 76.8-8.533 136.533-68.267 136.533-149.333 0-38.4-17.067-76.8-42.667-106.667-29.867-29.867-64-42.667-106.667-42.667-46.933 0-89.6 21.333-115.2 46.933zM627.2 204.8c-42.667 46.933-68.267 98.133-68.267 183.467 0 149.333 106.667 281.6 256 349.867l38.4-55.467c-140.8-76.8-170.667-174.933-179.2-238.933 21.333 12.8 51.2 17.067 81.067 12.8 76.8-8.533 136.533-68.267 136.533-149.333 0-38.4-17.067-76.8-42.667-106.667s-64-42.667-106.667-42.667c-46.933 0-89.6 21.333-115.2 46.933z" />
</font>
</defs>
</svg>
